<svg xmlns="http://www.w3.org/2000/svg" xmlns:xlink="http://www.w3.org/1999/xlink" width="2000" zoomAndPan="magnify" viewBox="0 0 1500 1499.999933" height="2000" preserveAspectRatio="xMidYMid meet" version="1.0"><defs><clipPath id="a245724219"><path d="M 466 503.25 L 1050 503.25 L 1050 996.75 L 466 996.75 Z M 466 503.25 " clip-rule="nonzero"/></clipPath></defs><rect x="-150" width="1800" fill="#ffffff" y="-149.999993" height="1799.99992" fill-opacity="1"/><rect x="-150" width="1800" fill="#f8faf0" y="-149.999993" height="1799.99992" fill-opacity="1"/><g clip-path="url(#a245724219)"><path fill="#a8dfca" d="M 1047.683594 505.609375 C 1046.269531 504.132812 1044.316406 503.296875 1042.273438 503.296875 C 920.921875 503.296875 831.921875 536.292969 777.726562 601.355469 C 727.304688 661.882812 719.316406 735.09375 720 779.445312 C 710.878906 763.945312 700.039062 748.9375 687.140625 734.980469 C 637.574219 681.34375 567.289062 654.144531 478.242188 654.144531 C 474.828125 654.144531 471.859375 656.441406 470.980469 659.734375 C 470.109375 663.03125 450.195312 741.207031 498.191406 803.542969 C 535.332031 851.773438 602.140625 876.226562 696.753906 876.226562 C 698.941406 876.226562 701.03125 875.265625 702.457031 873.59375 C 703.878906 871.929688 704.503906 869.71875 704.171875 867.550781 C 703.613281 864.035156 689.175781 780.773438 559.488281 728.851562 C 555.664062 727.308594 551.253906 729.164062 549.730469 733.035156 C 548.1875 736.878906 550.066406 741.246094 553.914062 742.789062 C 650.949219 781.644531 679.34375 839.289062 686.859375 861.109375 C 602.480469 859.507812 543.074219 837.117188 510.179688 794.496094 C 473.65625 747.171875 480.917969 687.578125 484.3125 669.207031 C 566.074219 670.402344 630.570312 695.925781 676.054688 745.097656 C 762.363281 838.417969 751.816406 987.234375 751.703125 988.730469 C 751.378906 992.871094 754.46875 996.476562 758.601562 996.796875 C 758.796875 996.820312 759.003906 996.832031 759.199219 996.832031 C 763.082031 996.832031 766.367188 993.847656 766.679688 989.90625 C 767.054688 985.144531 773.1875 899.285156 737.871094 815.222656 C 735.773438 801.632812 721.46875 692.355469 789.261719 610.964844 C 839.273438 550.921875 921.636719 519.785156 1034.15625 518.367188 C 1029.894531 563.304688 998.054688 785.167969 786.953125 790.324219 C 787.773438 763.941406 797.5 671.195312 891.144531 617.347656 C 894.742188 615.273438 895.976562 610.6875 893.910156 607.089844 C 891.839844 603.492188 887.253906 602.261719 883.660156 604.324219 C 766.289062 671.816406 771.878906 797.078125 771.949219 798.335938 C 772.171875 802.316406 775.457031 805.429688 779.445312 805.429688 C 1034.625 805.429688 1049.652344 514.066406 1049.769531 511.125 C 1049.855469 509.082031 1049.101562 507.082031 1047.683594 505.609375 " fill-opacity="1" fill-rule="nonzero"/></g></svg>