<svg xmlns="http://www.w3.org/2000/svg" viewBox="0 0 120 120">
  <path d="M36 62 Q33 92 60 94 Q87 92 84 62 Z" fill="#D4884A"/>
  <path d="M36 62 Q33 92 60 94 Q87 92 84 62 Z" fill="none" stroke="#B06030" stroke-width="1.8"/>
  <rect x="30" y="55" width="60" height="10" rx="5" fill="#E09A5A" stroke="#B06030" stroke-width="1.8"/>
  <ellipse cx="60" cy="64" rx="22" ry="5" fill="#7A4E2D"/>
  <path d="M60 64 Q58 50 60 32" stroke="#5A9E42" stroke-width="3.5" fill="none" stroke-linecap="round"/>
  <ellipse cx="42" cy="46" rx="15" ry="8" fill="#7EC850" stroke="#5A9E42" stroke-width="1.8" transform="rotate(-35 42 46)"/>
  <ellipse cx="78" cy="44" rx="15" ry="8" fill="#7EC850" stroke="#5A9E42" stroke-width="1.8" transform="rotate(35 78 44)"/>
  <circle cx="52" cy="74" r="3" fill="#5C3D2E"/>
  <circle cx="68" cy="74" r="3" fill="#5C3D2E"/>
  <path d="M50 82 Q60 90 70 82" stroke="#5C3D2E" stroke-width="2.2" fill="none" stroke-linecap="round"/>
  <circle cx="46" cy="79" r="5" fill="#FF9B9B" opacity="0.35"/>
  <circle cx="74" cy="79" r="5" fill="#FF9B9B" opacity="0.35"/>
</svg>
