<svg xmlns="http://www.w3.org/2000/svg" xmlns:xlink="http://www.w3.org/1999/xlink" width="120" viewBox="386 423 748 620" height="120" overflow="visible" preserveAspectRatio="xMidYMid meet" version="1.0"><defs><style>@keyframes vent{0%{transform:rotate(0deg)}15%{transform:rotate(-6deg)}40%{transform:rotate(5deg)}65%{transform:rotate(-4deg)}85%{transform:rotate(3deg)}100%{transform:rotate(0deg)}}#plante{transform-box:fill-box;transform-origin:center bottom;animation:vent 3.5s ease-in-out infinite;overflow:visible}</style><g/><clipPath id="6053601453"><path d="M 466 503.25 L 1050 503.25 L 1050 996.75 L 466 996.75 Z M 466 503.25 " clip-rule="nonzero"/></clipPath></defs><rect x="-150" width="1800" fill="none" y="-149.999993" height="1799.99992" fill-opacity="0"/><rect x="-150" width="1800" fill="none" y="-149.999993" height="1799.99992" fill-opacity="0"/><g id="plante" clip-path="url(#6053601453)"><path fill="#a8dfca" d="M 1047.683594 505.609375 C 1046.269531 504.132812 1044.316406 503.296875 1042.273438 503.296875 C 920.921875 503.296875 831.921875 536.292969 777.726562 601.355469 C 727.304688 661.882812 719.316406 735.09375 720 779.445312 C 710.878906 763.945312 700.039062 748.9375 687.140625 734.980469 C 637.574219 681.34375 567.289062 654.144531 478.242188 654.144531 C 474.828125 654.144531 471.859375 656.441406 470.980469 659.734375 C 470.109375 663.03125 450.195312 741.207031 498.191406 803.542969 C 535.332031 851.773438 602.140625 876.226562 696.753906 876.226562 C 698.941406 876.226562 701.03125 875.265625 702.457031 873.59375 C 703.878906 871.929688 704.503906 869.71875 704.171875 867.550781 C 703.613281 864.035156 689.175781 780.773438 559.488281 728.851562 C 555.664062 727.308594 551.253906 729.164062 549.730469 733.035156 C 548.1875 736.878906 550.066406 741.246094 553.914062 742.789062 C 650.949219 781.644531 679.34375 839.289062 686.859375 861.109375 C 602.480469 859.507812 543.074219 837.117188 510.179688 794.496094 C 473.65625 747.171875 480.917969 687.578125 484.3125 669.207031 C 566.074219 670.402344 630.570312 695.925781 676.054688 745.097656 C 762.363281 838.417969 751.816406 987.234375 751.703125 988.730469 C 751.378906 992.871094 754.46875 996.476562 758.601562 996.796875 C 758.796875 996.820312 759.003906 996.832031 759.199219 996.832031 C 763.082031 996.832031 766.367188 993.847656 766.679688 989.90625 C 767.054688 985.144531 773.1875 899.285156 737.871094 815.222656 C 735.773438 801.632812 721.46875 692.355469 789.261719 610.964844 C 839.273438 550.921875 921.636719 519.785156 1034.15625 518.367188 C 1029.894531 563.304688 998.054688 785.167969 786.953125 790.324219 C 787.773438 763.941406 797.5 671.195312 891.144531 617.347656 C 894.742188 615.273438 895.976562 610.6875 893.910156 607.089844 C 891.839844 603.492188 887.253906 602.261719 883.660156 604.324219 C 766.289062 671.816406 771.878906 797.078125 771.949219 798.335938 C 772.171875 802.316406 775.457031 805.429688 779.445312 805.429688 C 1034.625 805.429688 1049.652344 514.066406 1049.769531 511.125 C 1049.855469 509.082031 1049.101562 507.082031 1047.683594 505.609375 " fill-opacity="1" fill-rule="nonzero"/></g><g fill="#2c3e50" fill-opacity="1"><g transform="translate(596.379562, 1054.669569)"><g><path d="M 8.320312 0 L 8.320312 -9.558594 L 15.117188 -9.558594 C 20.878906 -9.558594 24.078125 -13.4375 24.078125 -18.078125 C 24.078125 -22.757812 20.917969 -26.679688 15.117188 -26.679688 L 2.640625 -26.679688 L 2.640625 0 Z M 18.277344 -18.117188 C 18.277344 -15.878906 16.597656 -14.4375 14.359375 -14.4375 L 8.320312 -14.4375 L 8.320312 -21.796875 L 14.359375 -21.796875 C 16.597656 -21.796875 18.277344 -20.320312 18.277344 -18.117188 Z M 18.277344 -18.117188 "/></g></g></g><g fill="#2c3e50" fill-opacity="1"><g transform="translate(624.537038, 1054.669569)"><g><path d="M 21.519531 0 L 21.519531 -4.917969 L 8.320312 -4.917969 L 8.320312 -11.121094 L 21.238281 -11.121094 L 21.238281 -16 L 8.320312 -16 L 8.320312 -21.796875 L 21.519531 -21.796875 L 21.519531 -26.679688 L 2.640625 -26.679688 L 2.640625 0 Z M 21.519531 0 "/></g></g></g><g fill="#2c3e50" fill-opacity="1"><g transform="translate(651.054667, 1054.669569)"><g><path d="M 14.519531 0 L 14.519531 -21.679688 L 22.277344 -21.679688 L 22.277344 -26.679688 L 1 -26.679688 L 1 -21.679688 L 8.800781 -21.679688 L 8.800781 0 Z M 14.519531 0 "/></g></g></g><g fill="#2c3e50" fill-opacity="1"><g transform="translate(677.5323, 1054.669569)"><g><path d="M 8.320312 0 L 8.320312 -26.679688 L 2.640625 -26.679688 L 2.640625 0 Z M 8.320312 0 "/></g></g></g><g fill="#2c3e50" fill-opacity="1"><g transform="translate(691.691158, 1054.669569)"><g><path d="M 14.519531 0 L 14.519531 -21.679688 L 22.277344 -21.679688 L 22.277344 -26.679688 L 1 -26.679688 L 1 -21.679688 L 8.800781 -21.679688 L 8.800781 0 Z M 14.519531 0 "/></g></g></g><g fill="#2c3e50" fill-opacity="1"><g transform="translate(718.16879, 1054.669569)"><g/></g></g><g fill="#2c3e50" fill-opacity="1"><g transform="translate(731.607723, 1054.669569)"><g><path d="M 8.320312 0 L 8.320312 -9.558594 L 15.117188 -9.558594 C 20.878906 -9.558594 24.078125 -13.4375 24.078125 -18.078125 C 24.078125 -22.757812 20.917969 -26.679688 15.117188 -26.679688 L 2.640625 -26.679688 L 2.640625 0 Z M 18.277344 -18.117188 C 18.277344 -15.878906 16.597656 -14.4375 14.359375 -14.4375 L 8.320312 -14.4375 L 8.320312 -21.796875 L 14.359375 -21.796875 C 16.597656 -21.796875 18.277344 -20.320312 18.277344 -18.117188 Z M 18.277344 -18.117188 "/></g></g></g><g fill="#2c3e50" fill-opacity="1"><g transform="translate(759.765199, 1054.669569)"><g><path d="M 1.359375 -13.320312 C 1.359375 -5.28125 7.238281 0.480469 15.277344 0.480469 C 23.359375 0.480469 29.238281 -5.28125 29.238281 -13.320312 C 29.238281 -21.359375 23.359375 -27.117188 15.277344 -27.117188 C 7.238281 -27.117188 1.359375 -21.359375 1.359375 -13.320312 Z M 23.398438 -13.320312 C 23.398438 -8.359375 20.199219 -4.558594 15.277344 -4.558594 C 10.359375 -4.558594 7.199219 -8.359375 7.199219 -13.320312 C 7.199219 -18.320312 10.359375 -22.078125 15.277344 -22.078125 C 20.199219 -22.078125 23.398438 -18.320312 23.398438 -13.320312 Z M 23.398438 -13.320312 "/></g></g></g><g fill="#2c3e50" fill-opacity="1"><g transform="translate(793.562117, 1054.669569)"><g><path d="M 2.640625 -10.640625 C 2.640625 -4.078125 6.441406 0.480469 14.597656 0.480469 C 22.679688 0.480469 26.476562 -4.039062 26.476562 -10.679688 L 26.476562 -26.679688 L 20.71875 -26.679688 L 20.71875 -10.839844 C 20.71875 -7.121094 18.679688 -4.558594 14.597656 -4.558594 C 10.4375 -4.558594 8.398438 -7.121094 8.398438 -10.839844 L 8.398438 -26.679688 L 2.640625 -26.679688 Z M 2.640625 -10.640625 "/></g></g></g><g fill="#2c3e50" fill-opacity="1"><g transform="translate(825.879177, 1054.669569)"><g><path d="M 0.800781 -3.757812 C 3.320312 -1.238281 7 0.480469 12.121094 0.480469 C 19.320312 0.480469 22.796875 -3.199219 22.796875 -8.078125 C 22.796875 -14 17.199219 -15.320312 12.800781 -16.320312 C 9.71875 -17.039062 7.480469 -17.597656 7.480469 -19.398438 C 7.480469 -21 8.839844 -22.117188 11.398438 -22.117188 C 14 -22.117188 16.878906 -21.199219 19.039062 -19.199219 L 22.199219 -23.359375 C 19.558594 -25.796875 16.039062 -27.078125 11.800781 -27.078125 C 5.519531 -27.078125 1.679688 -23.480469 1.679688 -19.039062 C 1.679688 -13.078125 7.28125 -11.878906 11.640625 -10.878906 C 14.71875 -10.160156 17.039062 -9.480469 17.039062 -7.480469 C 17.039062 -5.960938 15.519531 -4.480469 12.398438 -4.480469 C 8.71875 -4.480469 5.800781 -6.121094 3.917969 -8.078125 Z M 0.800781 -3.757812 "/></g></g></g><g fill="#2c3e50" fill-opacity="1"><g transform="translate(853.076745, 1054.669569)"><g><path d="M 0.800781 -3.757812 C 3.320312 -1.238281 7 0.480469 12.121094 0.480469 C 19.320312 0.480469 22.796875 -3.199219 22.796875 -8.078125 C 22.796875 -14 17.199219 -15.320312 12.800781 -16.320312 C 9.71875 -17.039062 7.480469 -17.597656 7.480469 -19.398438 C 7.480469 -21 8.839844 -22.117188 11.398438 -22.117188 C 14 -22.117188 16.878906 -21.199219 19.039062 -19.199219 L 22.199219 -23.359375 C 19.558594 -25.796875 16.039062 -27.078125 11.800781 -27.078125 C 5.519531 -27.078125 1.679688 -23.480469 1.679688 -19.039062 C 1.679688 -13.078125 7.28125 -11.878906 11.640625 -10.878906 C 14.71875 -10.160156 17.039062 -9.480469 17.039062 -7.480469 C 17.039062 -5.960938 15.519531 -4.480469 12.398438 -4.480469 C 8.71875 -4.480469 5.800781 -6.121094 3.917969 -8.078125 Z M 0.800781 -3.757812 "/></g></g></g><g fill="#2c3e50" fill-opacity="1"><g transform="translate(880.274314, 1054.669569)"><g><path d="M 21.519531 0 L 21.519531 -4.917969 L 8.320312 -4.917969 L 8.320312 -11.121094 L 21.238281 -11.121094 L 21.238281 -16 L 8.320312 -16 L 8.320312 -21.796875 L 21.519531 -21.796875 L 21.519531 -26.679688 L 2.640625 -26.679688 L 2.640625 0 Z M 21.519531 0 "/></g></g></g><g fill="#2c3e50" fill-opacity="1"><g transform="translate(476.935863, 1161.037152)"><g><path d="M 20.453125 -9.328125 C 20.203125 -8.816406 19.890625 -8.207031 19.515625 -7.5 C 19.148438 -6.789062 18.726562 -6.050781 18.25 -5.28125 C 17.78125 -4.519531 17.253906 -3.765625 16.671875 -3.015625 C 16.085938 -2.265625 15.453125 -1.585938 14.765625 -0.984375 C 14.085938 -0.390625 13.359375 0.0859375 12.578125 0.453125 C 11.804688 0.828125 10.984375 1.015625 10.109375 1.015625 C 8.765625 1.015625 7.609375 0.597656 6.640625 -0.234375 C 5.671875 -1.066406 4.847656 -2.15625 4.171875 -3.5 C 3.503906 -4.851562 2.960938 -6.390625 2.546875 -8.109375 C 2.128906 -9.828125 1.804688 -11.578125 1.578125 -13.359375 C 1.359375 -15.140625 1.207031 -16.875 1.125 -18.5625 C 1.050781 -20.25 1.015625 -21.742188 1.015625 -23.046875 C 1.015625 -24.929688 1.070312 -26.882812 1.1875 -28.90625 C 1.3125 -30.925781 1.507812 -32.898438 1.78125 -34.828125 C 2.050781 -36.765625 2.394531 -38.597656 2.8125 -40.328125 C 3.226562 -42.054688 3.722656 -43.570312 4.296875 -44.875 C 4.867188 -46.175781 5.523438 -47.207031 6.265625 -47.96875 C 7.003906 -48.738281 7.847656 -49.125 8.796875 -49.125 C 9.535156 -49.125 10.203125 -48.945312 10.796875 -48.59375 C 11.390625 -48.25 11.890625 -47.679688 12.296875 -46.890625 C 12.703125 -46.109375 13.015625 -45.085938 13.234375 -43.828125 C 13.460938 -42.578125 13.578125 -41.039062 13.578125 -39.21875 C 13.578125 -36.96875 13.335938 -34.644531 12.859375 -32.25 C 12.390625 -29.863281 11.75 -27.457031 10.9375 -25.03125 C 10.132812 -22.601562 9.179688 -20.179688 8.078125 -17.765625 C 6.984375 -15.359375 5.804688 -13.007812 4.546875 -10.71875 C 5.109375 -7.863281 5.859375 -5.617188 6.796875 -3.984375 C 7.742188 -2.359375 8.878906 -1.546875 10.203125 -1.546875 C 11.109375 -1.546875 11.972656 -1.898438 12.796875 -2.609375 C 13.628906 -3.316406 14.394531 -4.148438 15.09375 -5.109375 C 15.789062 -6.078125 16.398438 -7.0625 16.921875 -8.0625 C 17.453125 -9.0625 17.863281 -9.867188 18.15625 -10.484375 C 18.269531 -10.703125 18.425781 -10.875 18.625 -11 C 18.832031 -11.125 19.0625 -11.1875 19.3125 -11.1875 C 19.6875 -11.1875 19.988281 -11.050781 20.21875 -10.78125 C 20.457031 -10.507812 20.578125 -10.207031 20.578125 -9.875 C 20.578125 -9.738281 20.535156 -9.554688 20.453125 -9.328125 Z M 3.578125 -22.875 C 3.578125 -21.4375 3.609375 -20.054688 3.671875 -18.734375 C 3.742188 -17.410156 3.832031 -16.140625 3.9375 -14.921875 C 4.882812 -16.742188 5.785156 -18.679688 6.640625 -20.734375 C 7.492188 -22.785156 8.242188 -24.863281 8.890625 -26.96875 C 9.546875 -29.070312 10.066406 -31.160156 10.453125 -33.234375 C 10.847656 -35.316406 11.046875 -37.300781 11.046875 -39.1875 C 11.046875 -41.832031 10.832031 -43.726562 10.40625 -44.875 C 9.976562 -46.019531 9.40625 -46.59375 8.6875 -46.59375 C 8.21875 -46.59375 7.765625 -46.265625 7.328125 -45.609375 C 6.890625 -44.960938 6.476562 -44.078125 6.09375 -42.953125 C 5.71875 -41.828125 5.367188 -40.5 5.046875 -38.96875 C 4.734375 -37.445312 4.46875 -35.8125 4.25 -34.0625 C 4.039062 -32.3125 3.875 -30.476562 3.75 -28.5625 C 3.632812 -26.65625 3.578125 -24.757812 3.578125 -22.875 Z M 3.578125 -22.875 "/></g></g><g transform="translate(493.815256, 1161.037152)"><g><path d="M 8.28125 -45.953125 C 8.414062 -42.515625 7.296875 -39.582031 4.921875 -37.15625 C 4.628906 -36.914062 4.328125 -36.796875 4.015625 -36.796875 C 3.648438 -36.796875 3.34375 -36.914062 3.09375 -37.15625 C 2.851562 -37.40625 2.734375 -37.703125 2.734375 -38.046875 C 2.734375 -38.398438 2.851562 -38.703125 3.09375 -38.953125 C 4.957031 -40.859375 5.847656 -43.160156 5.765625 -45.859375 C 5.742188 -46.210938 5.847656 -46.519531 6.078125 -46.78125 C 6.316406 -47.039062 6.613281 -47.171875 6.96875 -47.171875 C 7.3125 -47.171875 7.609375 -47.054688 7.859375 -46.828125 C 8.117188 -46.609375 8.257812 -46.316406 8.28125 -45.953125 Z M 8.28125 -45.953125 "/></g></g><g transform="translate(504.832345, 1161.037152)"><g><path d="M 27.328125 -9.40625 C 27.234375 -9.21875 27.046875 -8.835938 26.765625 -8.265625 C 26.484375 -7.691406 26.125 -7.035156 25.6875 -6.296875 C 25.25 -5.554688 24.738281 -4.78125 24.15625 -3.96875 C 23.570312 -3.164062 22.921875 -2.425781 22.203125 -1.75 C 21.484375 -1.070312 20.707031 -0.515625 19.875 -0.078125 C 19.039062 0.359375 18.164062 0.578125 17.25 0.578125 C 15.945312 0.578125 14.851562 0.160156 13.96875 -0.671875 C 13.082031 -1.503906 12.4375 -2.550781 12.03125 -3.8125 C 11.257812 -2.53125 10.347656 -1.507812 9.296875 -0.75 C 8.242188 0 7.1875 0.375 6.125 0.375 C 5.300781 0.375 4.550781 0.222656 3.875 -0.078125 C 3.195312 -0.390625 2.625 -0.816406 2.15625 -1.359375 C 1.6875 -1.910156 1.320312 -2.554688 1.0625 -3.296875 C 0.800781 -4.035156 0.671875 -4.847656 0.671875 -5.734375 C 0.671875 -7.484375 0.96875 -9.023438 1.5625 -10.359375 C 2.15625 -11.691406 2.910156 -12.804688 3.828125 -13.703125 C 4.753906 -14.609375 5.773438 -15.285156 6.890625 -15.734375 C 8.003906 -16.179688 9.078125 -16.40625 10.109375 -16.40625 C 10.804688 -16.40625 11.445312 -16.304688 12.03125 -16.109375 C 12.613281 -15.921875 13.113281 -15.710938 13.53125 -15.484375 C 13.945312 -15.265625 14.265625 -15.0625 14.484375 -14.875 C 14.710938 -14.6875 14.835938 -14.582031 14.859375 -14.5625 C 15.109375 -14.257812 15.234375 -13.953125 15.234375 -13.640625 C 15.234375 -13.304688 15.109375 -13.007812 14.859375 -12.75 C 14.609375 -12.488281 14.316406 -12.359375 13.984375 -12.359375 C 13.617188 -12.359375 13.316406 -12.484375 13.078125 -12.734375 C 13.023438 -12.773438 12.921875 -12.859375 12.765625 -12.984375 C 12.609375 -13.109375 12.394531 -13.238281 12.125 -13.375 C 11.851562 -13.507812 11.53125 -13.625 11.15625 -13.71875 C 10.789062 -13.820312 10.375 -13.875 9.90625 -13.875 C 9.207031 -13.875 8.460938 -13.71875 7.671875 -13.40625 C 6.890625 -13.09375 6.171875 -12.601562 5.515625 -11.9375 C 4.867188 -11.28125 4.328125 -10.453125 3.890625 -9.453125 C 3.453125 -8.453125 3.234375 -7.265625 3.234375 -5.890625 C 3.234375 -5.460938 3.273438 -5.03125 3.359375 -4.59375 C 3.453125 -4.15625 3.609375 -3.753906 3.828125 -3.390625 C 4.054688 -3.035156 4.363281 -2.742188 4.75 -2.515625 C 5.132812 -2.296875 5.609375 -2.1875 6.171875 -2.1875 C 6.566406 -2.1875 7.03125 -2.320312 7.5625 -2.59375 C 8.09375 -2.863281 8.597656 -3.28125 9.078125 -3.84375 C 9.554688 -4.40625 9.992188 -5.113281 10.390625 -5.96875 C 10.785156 -6.820312 11.0625 -7.832031 11.21875 -9 C 11.257812 -9.3125 11.40625 -9.570312 11.65625 -9.78125 C 11.90625 -10 12.195312 -10.109375 12.53125 -10.109375 C 12.84375 -10.109375 13.117188 -9.984375 13.359375 -9.734375 C 13.597656 -9.484375 13.726562 -9.203125 13.75 -8.890625 C 13.769531 -8.460938 13.8125 -7.863281 13.875 -7.09375 C 13.945312 -6.320312 14.097656 -5.550781 14.328125 -4.78125 C 14.566406 -4.019531 14.921875 -3.359375 15.390625 -2.796875 C 15.867188 -2.234375 16.519531 -1.953125 17.34375 -1.953125 C 17.882812 -1.953125 18.421875 -2.097656 18.953125 -2.390625 C 19.484375 -2.679688 20 -3.066406 20.5 -3.546875 C 21.007812 -4.035156 21.492188 -4.585938 21.953125 -5.203125 C 22.410156 -5.816406 22.828125 -6.4375 23.203125 -7.0625 C 23.585938 -7.695312 23.925781 -8.304688 24.21875 -8.890625 C 24.507812 -9.472656 24.757812 -9.976562 24.96875 -10.40625 C 25.082031 -10.65625 25.242188 -10.847656 25.453125 -10.984375 C 25.671875 -11.117188 25.898438 -11.1875 26.140625 -11.1875 C 26.523438 -11.1875 26.832031 -11.046875 27.0625 -10.765625 C 27.300781 -10.484375 27.421875 -10.1875 27.421875 -9.875 C 27.421875 -9.71875 27.390625 -9.5625 27.328125 -9.40625 Z M 27.328125 -9.40625 "/></g></g><g transform="translate(528.551093, 1161.037152)"><g><path d="M 18.5625 -9.40625 C 18.5625 -7.332031 18.191406 -5.566406 17.453125 -4.109375 C 16.710938 -2.648438 15.800781 -1.539062 14.71875 -0.78125 L 14.859375 -0.78125 C 16.179688 -0.78125 17.382812 -1.078125 18.46875 -1.671875 C 19.5625 -2.265625 20.546875 -3.023438 21.421875 -3.953125 C 22.296875 -4.890625 23.082031 -5.929688 23.78125 -7.078125 C 24.476562 -8.222656 25.097656 -9.332031 25.640625 -10.40625 C 25.753906 -10.65625 25.914062 -10.847656 26.125 -10.984375 C 26.34375 -11.117188 26.570312 -11.1875 26.8125 -11.1875 C 27.195312 -11.1875 27.5 -11.050781 27.71875 -10.78125 C 27.945312 -10.507812 28.0625 -10.21875 28.0625 -9.90625 C 28.0625 -9.726562 28.03125 -9.5625 27.96875 -9.40625 C 27.382812 -8.101562 26.6875 -6.789062 25.875 -5.46875 C 25.0625 -4.15625 24.113281 -2.972656 23.03125 -1.921875 C 21.957031 -0.867188 20.75 -0.0078125 19.40625 0.65625 C 18.0625 1.320312 16.566406 1.65625 14.921875 1.65625 C 13.734375 1.65625 12.578125 1.46875 11.453125 1.09375 C 10.328125 0.726562 9.335938 0.148438 8.484375 -0.640625 C 8.171875 -0.890625 7.898438 -1.15625 7.671875 -1.4375 C 7.453125 -1.71875 7.273438 -1.976562 7.140625 -2.21875 C 7.097656 -2.269531 7.078125 -2.316406 7.078125 -2.359375 C 6.941406 -2.554688 6.875 -2.769531 6.875 -3 C 6.875 -3.289062 6.972656 -3.5625 7.171875 -3.8125 C 7.191406 -3.851562 7.210938 -3.878906 7.234375 -3.890625 C 7.265625 -3.898438 7.289062 -3.914062 7.3125 -3.9375 C 7.53125 -4.144531 7.773438 -4.257812 8.046875 -4.28125 L 8.15625 -4.28125 C 8.269531 -4.28125 8.347656 -4.269531 8.390625 -4.25 C 8.410156 -4.25 8.425781 -4.242188 8.4375 -4.234375 C 8.445312 -4.222656 8.460938 -4.21875 8.484375 -4.21875 C 8.554688 -4.21875 8.632812 -4.191406 8.71875 -4.140625 C 8.75 -4.117188 8.773438 -4.109375 8.796875 -4.109375 C 8.992188 -3.972656 9.160156 -3.804688 9.296875 -3.609375 C 9.453125 -3.335938 9.632812 -3.085938 9.84375 -2.859375 C 10.019531 -2.679688 10.226562 -2.519531 10.46875 -2.375 C 10.71875 -2.226562 11.003906 -2.15625 11.328125 -2.15625 C 11.878906 -2.15625 12.4375 -2.320312 13 -2.65625 C 13.5625 -3 14.066406 -3.484375 14.515625 -4.109375 C 14.960938 -4.734375 15.328125 -5.492188 15.609375 -6.390625 C 15.890625 -7.296875 16.03125 -8.300781 16.03125 -9.40625 C 16.03125 -10.207031 15.945312 -10.894531 15.78125 -11.46875 C 15.613281 -12.039062 15.398438 -12.503906 15.140625 -12.859375 C 14.878906 -13.222656 14.601562 -13.488281 14.3125 -13.65625 C 14.019531 -13.832031 13.742188 -13.921875 13.484375 -13.921875 C 12.867188 -13.921875 12.253906 -13.601562 11.640625 -12.96875 C 11.023438 -12.34375 10.410156 -11.546875 9.796875 -10.578125 C 9.191406 -9.609375 8.59375 -8.539062 8 -7.375 C 7.40625 -6.207031 6.804688 -5.070312 6.203125 -3.96875 C 6.148438 -0.332031 6.082031 3.132812 6 6.4375 C 5.925781 9.738281 5.796875 12.800781 5.609375 15.625 C 5.421875 18.457031 5.15625 21.019531 4.8125 23.3125 C 4.476562 25.601562 4.019531 27.5625 3.4375 29.1875 C 2.851562 30.820312 2.132812 32.078125 1.28125 32.953125 C 0.425781 33.828125 -0.617188 34.265625 -1.859375 34.265625 C -2.234375 34.265625 -2.664062 34.1875 -3.15625 34.03125 C -3.65625 33.875 -4.117188 33.550781 -4.546875 33.0625 C -4.972656 32.582031 -5.332031 31.894531 -5.625 31 C -5.914062 30.101562 -6.0625 28.898438 -6.0625 27.390625 C -6.0625 25.484375 -5.828125 23.269531 -5.359375 20.75 C -4.890625 18.238281 -4.222656 15.570312 -3.359375 12.75 C -2.492188 9.9375 -1.460938 7.046875 -0.265625 4.078125 C 0.921875 1.109375 2.234375 -1.773438 3.671875 -4.578125 C 3.671875 -5.367188 3.675781 -6.144531 3.6875 -6.90625 C 3.695312 -7.664062 3.703125 -8.40625 3.703125 -9.125 C 3.410156 -8.789062 3.0625 -8.625 2.65625 -8.625 C 2.28125 -8.625 1.976562 -8.757812 1.75 -9.03125 C 1.53125 -9.300781 1.421875 -9.59375 1.421875 -9.90625 C 1.421875 -10.0625 1.453125 -10.226562 1.515625 -10.40625 C 2.054688 -11.644531 2.472656 -12.816406 2.765625 -13.921875 C 3.054688 -15.035156 3.273438 -16.015625 3.421875 -16.859375 C 3.566406 -17.703125 3.648438 -18.367188 3.671875 -18.859375 C 3.691406 -19.359375 3.703125 -19.617188 3.703125 -19.640625 C 3.703125 -19.972656 3.828125 -20.265625 4.078125 -20.515625 C 4.328125 -20.765625 4.628906 -20.890625 4.984375 -20.890625 C 5.316406 -20.890625 5.609375 -20.769531 5.859375 -20.53125 C 6.109375 -20.300781 6.234375 -20.003906 6.234375 -19.640625 L 6.234375 -9.296875 C 6.753906 -10.171875 7.269531 -11.035156 7.78125 -11.890625 C 8.300781 -12.742188 8.847656 -13.503906 9.421875 -14.171875 C 9.992188 -14.847656 10.609375 -15.394531 11.265625 -15.8125 C 11.929688 -16.226562 12.671875 -16.4375 13.484375 -16.4375 C 14.242188 -16.4375 14.9375 -16.253906 15.5625 -15.890625 C 16.195312 -15.535156 16.738281 -15.046875 17.1875 -14.421875 C 17.632812 -13.796875 17.972656 -13.046875 18.203125 -12.171875 C 18.441406 -11.304688 18.5625 -10.382812 18.5625 -9.40625 Z M 3.609375 1.421875 C 2.503906 3.890625 1.507812 6.367188 0.625 8.859375 C -0.257812 11.347656 -1.007812 13.75 -1.625 16.0625 C -2.25 18.382812 -2.726562 20.554688 -3.0625 22.578125 C -3.40625 24.597656 -3.578125 26.367188 -3.578125 27.890625 C -3.578125 28.273438 -3.550781 28.691406 -3.5 29.140625 C -3.457031 29.585938 -3.367188 30.003906 -3.234375 30.390625 C -3.097656 30.773438 -2.90625 31.09375 -2.65625 31.34375 C -2.414062 31.601562 -2.09375 31.734375 -1.6875 31.734375 C -0.945312 31.734375 -0.304688 31.265625 0.234375 30.328125 C 0.773438 29.398438 1.226562 28.144531 1.59375 26.5625 C 1.96875 24.976562 2.273438 23.160156 2.515625 21.109375 C 2.765625 19.054688 2.960938 16.90625 3.109375 14.65625 C 3.253906 12.40625 3.359375 10.140625 3.421875 7.859375 C 3.492188 5.585938 3.554688 3.441406 3.609375 1.421875 Z M 3.609375 1.421875 "/></g></g><g transform="translate(552.909977, 1161.037152)"><g><path d="M 18.5625 -9.40625 C 18.5625 -7.332031 18.191406 -5.566406 17.453125 -4.109375 C 16.710938 -2.648438 15.800781 -1.539062 14.71875 -0.78125 L 14.859375 -0.78125 C 16.179688 -0.78125 17.382812 -1.078125 18.46875 -1.671875 C 19.5625 -2.265625 20.546875 -3.023438 21.421875 -3.953125 C 22.296875 -4.890625 23.082031 -5.929688 23.78125 -7.078125 C 24.476562 -8.222656 25.097656 -9.332031 25.640625 -10.40625 C 25.753906 -10.65625 25.914062 -10.847656 26.125 -10.984375 C 26.34375 -11.117188 26.570312 -11.1875 26.8125 -11.1875 C 27.195312 -11.1875 27.5 -11.050781 27.71875 -10.78125 C 27.945312 -10.507812 28.0625 -10.21875 28.0625 -9.90625 C 28.0625 -9.726562 28.03125 -9.5625 27.96875 -9.40625 C 27.382812 -8.101562 26.6875 -6.789062 25.875 -5.46875 C 25.0625 -4.15625 24.113281 -2.972656 23.03125 -1.921875 C 21.957031 -0.867188 20.75 -0.0078125 19.40625 0.65625 C 18.0625 1.320312 16.566406 1.65625 14.921875 1.65625 C 13.734375 1.65625 12.578125 1.46875 11.453125 1.09375 C 10.328125 0.726562 9.335938 0.148438 8.484375 -0.640625 C 8.171875 -0.890625 7.898438 -1.15625 7.671875 -1.4375 C 7.453125 -1.71875 7.273438 -1.976562 7.140625 -2.21875 C 7.097656 -2.269531 7.078125 -2.316406 7.078125 -2.359375 C 6.941406 -2.554688 6.875 -2.769531 6.875 -3 C 6.875 -3.289062 6.972656 -3.5625 7.171875 -3.8125 C 7.191406 -3.851562 7.210938 -3.878906 7.234375 -3.890625 C 7.265625 -3.898438 7.289062 -3.914062 7.3125 -3.9375 C 7.53125 -4.144531 7.773438 -4.257812 8.046875 -4.28125 L 8.15625 -4.28125 C 8.269531 -4.28125 8.347656 -4.269531 8.390625 -4.25 C 8.410156 -4.25 8.425781 -4.242188 8.4375 -4.234375 C 8.445312 -4.222656 8.460938 -4.21875 8.484375 -4.21875 C 8.554688 -4.21875 8.632812 -4.191406 8.71875 -4.140625 C 8.75 -4.117188 8.773438 -4.109375 8.796875 -4.109375 C 8.992188 -3.972656 9.160156 -3.804688 9.296875 -3.609375 C 9.453125 -3.335938 9.632812 -3.085938 9.84375 -2.859375 C 10.019531 -2.679688 10.226562 -2.519531 10.46875 -2.375 C 10.71875 -2.226562 11.003906 -2.15625 11.328125 -2.15625 C 11.878906 -2.15625 12.4375 -2.320312 13 -2.65625 C 13.5625 -3 14.066406 -3.484375 14.515625 -4.109375 C 14.960938 -4.734375 15.328125 -5.492188 15.609375 -6.390625 C 15.890625 -7.296875 16.03125 -8.300781 16.03125 -9.40625 C 16.03125 -10.207031 15.945312 -10.894531 15.78125 -11.46875 C 15.613281 -12.039062 15.398438 -12.503906 15.140625 -12.859375 C 14.878906 -13.222656 14.601562 -13.488281 14.3125 -13.65625 C 14.019531 -13.832031 13.742188 -13.921875 13.484375 -13.921875 C 12.867188 -13.921875 12.253906 -13.601562 11.640625 -12.96875 C 11.023438 -12.34375 10.410156 -11.546875 9.796875 -10.578125 C 9.191406 -9.609375 8.59375 -8.539062 8 -7.375 C 7.40625 -6.207031 6.804688 -5.070312 6.203125 -3.96875 C 6.148438 -0.332031 6.082031 3.132812 6 6.4375 C 5.925781 9.738281 5.796875 12.800781 5.609375 15.625 C 5.421875 18.457031 5.15625 21.019531 4.8125 23.3125 C 4.476562 25.601562 4.019531 27.5625 3.4375 29.1875 C 2.851562 30.820312 2.132812 32.078125 1.28125 32.953125 C 0.425781 33.828125 -0.617188 34.265625 -1.859375 34.265625 C -2.234375 34.265625 -2.664062 34.1875 -3.15625 34.03125 C -3.65625 33.875 -4.117188 33.550781 -4.546875 33.0625 C -4.972656 32.582031 -5.332031 31.894531 -5.625 31 C -5.914062 30.101562 -6.0625 28.898438 -6.0625 27.390625 C -6.0625 25.484375 -5.828125 23.269531 -5.359375 20.75 C -4.890625 18.238281 -4.222656 15.570312 -3.359375 12.75 C -2.492188 9.9375 -1.460938 7.046875 -0.265625 4.078125 C 0.921875 1.109375 2.234375 -1.773438 3.671875 -4.578125 C 3.671875 -5.367188 3.675781 -6.144531 3.6875 -6.90625 C 3.695312 -7.664062 3.703125 -8.40625 3.703125 -9.125 C 3.410156 -8.789062 3.0625 -8.625 2.65625 -8.625 C 2.28125 -8.625 1.976562 -8.757812 1.75 -9.03125 C 1.53125 -9.300781 1.421875 -9.59375 1.421875 -9.90625 C 1.421875 -10.0625 1.453125 -10.226562 1.515625 -10.40625 C 2.054688 -11.644531 2.472656 -12.816406 2.765625 -13.921875 C 3.054688 -15.035156 3.273438 -16.015625 3.421875 -16.859375 C 3.566406 -17.703125 3.648438 -18.367188 3.671875 -18.859375 C 3.691406 -19.359375 3.703125 -19.617188 3.703125 -19.640625 C 3.703125 -19.972656 3.828125 -20.265625 4.078125 -20.515625 C 4.328125 -20.765625 4.628906 -20.890625 4.984375 -20.890625 C 5.316406 -20.890625 5.609375 -20.769531 5.859375 -20.53125 C 6.109375 -20.300781 6.234375 -20.003906 6.234375 -19.640625 L 6.234375 -9.296875 C 6.753906 -10.171875 7.269531 -11.035156 7.78125 -11.890625 C 8.300781 -12.742188 8.847656 -13.503906 9.421875 -14.171875 C 9.992188 -14.847656 10.609375 -15.394531 11.265625 -15.8125 C 11.929688 -16.226562 12.671875 -16.4375 13.484375 -16.4375 C 14.242188 -16.4375 14.9375 -16.253906 15.5625 -15.890625 C 16.195312 -15.535156 16.738281 -15.046875 17.1875 -14.421875 C 17.632812 -13.796875 17.972656 -13.046875 18.203125 -12.171875 C 18.441406 -11.304688 18.5625 -10.382812 18.5625 -9.40625 Z M 3.609375 1.421875 C 2.503906 3.890625 1.507812 6.367188 0.625 8.859375 C -0.257812 11.347656 -1.007812 13.75 -1.625 16.0625 C -2.25 18.382812 -2.726562 20.554688 -3.0625 22.578125 C -3.40625 24.597656 -3.578125 26.367188 -3.578125 27.890625 C -3.578125 28.273438 -3.550781 28.691406 -3.5 29.140625 C -3.457031 29.585938 -3.367188 30.003906 -3.234375 30.390625 C -3.097656 30.773438 -2.90625 31.09375 -2.65625 31.34375 C -2.414062 31.601562 -2.09375 31.734375 -1.6875 31.734375 C -0.945312 31.734375 -0.304688 31.265625 0.234375 30.328125 C 0.773438 29.398438 1.226562 28.144531 1.59375 26.5625 C 1.96875 24.976562 2.273438 23.160156 2.515625 21.109375 C 2.765625 19.054688 2.960938 16.90625 3.109375 14.65625 C 3.253906 12.40625 3.359375 10.140625 3.421875 7.859375 C 3.492188 5.585938 3.554688 3.441406 3.609375 1.421875 Z M 3.609375 1.421875 "/></g></g><g transform="translate(577.268862, 1161.037152)"><g/></g><g transform="translate(592.429993, 1161.037152)"><g><path d="M 13.484375 3.4375 C 14.421875 2.195312 15.328125 0.960938 16.203125 -0.265625 C 17.078125 -1.503906 17.890625 -2.71875 18.640625 -3.90625 C 19.398438 -5.09375 20.085938 -6.238281 20.703125 -7.34375 C 21.316406 -8.445312 21.835938 -9.46875 22.265625 -10.40625 C 22.378906 -10.65625 22.53125 -10.84375 22.71875 -10.96875 C 22.914062 -11.09375 23.132812 -11.15625 23.375 -11.15625 C 23.757812 -11.15625 24.078125 -11.023438 24.328125 -10.765625 C 24.578125 -10.503906 24.703125 -10.207031 24.703125 -9.875 C 24.703125 -9.71875 24.664062 -9.5625 24.59375 -9.40625 C 24.101562 -8.300781 23.5 -7.113281 22.78125 -5.84375 C 22.0625 -4.570312 21.253906 -3.25 20.359375 -1.875 C 19.472656 -0.507812 18.519531 0.875 17.5 2.28125 C 16.476562 3.695312 15.414062 5.09375 14.3125 6.46875 C 15.28125 7.59375 16.1875 8.984375 17.03125 10.640625 C 17.875 12.304688 18.597656 14.09375 19.203125 16 C 19.804688 17.914062 20.28125 19.859375 20.625 21.828125 C 20.976562 23.804688 21.15625 25.660156 21.15625 27.390625 C 21.15625 29.347656 20.960938 30.910156 20.578125 32.078125 C 20.203125 33.242188 19.742188 34.140625 19.203125 34.765625 C 18.660156 35.398438 18.097656 35.8125 17.515625 36 C 16.929688 36.1875 16.4375 36.28125 16.03125 36.28125 C 14.800781 36.28125 13.832031 35.894531 13.125 35.125 C 12.414062 34.351562 11.875 33.21875 11.5 31.71875 C 11.132812 30.226562 10.898438 28.378906 10.796875 26.171875 C 10.691406 23.972656 10.640625 21.4375 10.640625 18.5625 C 10.640625 16.675781 10.65625 14.765625 10.6875 12.828125 C 10.726562 10.898438 10.78125 9.003906 10.84375 7.140625 C 10.914062 5.273438 10.992188 3.484375 11.078125 1.765625 C 11.171875 0.046875 11.273438 -1.539062 11.390625 -3 C 10.671875 -1.914062 9.863281 -1.082031 8.96875 -0.5 C 8.082031 0.0820312 7.101562 0.375 6.03125 0.375 C 5.21875 0.375 4.476562 0.21875 3.8125 -0.09375 C 3.15625 -0.414062 2.59375 -0.847656 2.125 -1.390625 C 1.65625 -1.941406 1.296875 -2.585938 1.046875 -3.328125 C 0.796875 -4.078125 0.671875 -4.878906 0.671875 -5.734375 C 0.671875 -7.484375 0.96875 -9.023438 1.5625 -10.359375 C 2.15625 -11.691406 2.910156 -12.804688 3.828125 -13.703125 C 4.753906 -14.609375 5.773438 -15.285156 6.890625 -15.734375 C 8.003906 -16.179688 9.078125 -16.40625 10.109375 -16.40625 C 10.804688 -16.40625 11.445312 -16.304688 12.03125 -16.109375 C 12.613281 -15.921875 13.101562 -15.710938 13.5 -15.484375 C 13.90625 -15.265625 14.226562 -15.0625 14.46875 -14.875 C 14.707031 -14.6875 14.835938 -14.582031 14.859375 -14.5625 C 15.109375 -14.332031 15.234375 -14.023438 15.234375 -13.640625 C 15.234375 -13.304688 15.113281 -13.007812 14.875 -12.75 C 14.632812 -12.488281 14.328125 -12.359375 13.953125 -12.359375 C 13.742188 -12.359375 13.578125 -12.390625 13.453125 -12.453125 C 13.335938 -12.523438 13.210938 -12.617188 13.078125 -12.734375 C 12.847656 -12.910156 12.515625 -13.144531 12.078125 -13.4375 C 11.640625 -13.726562 10.992188 -13.875 10.140625 -13.875 C 9.460938 -13.875 8.71875 -13.722656 7.90625 -13.421875 C 7.101562 -13.117188 6.351562 -12.640625 5.65625 -11.984375 C 4.957031 -11.335938 4.375 -10.503906 3.90625 -9.484375 C 3.4375 -8.460938 3.203125 -7.234375 3.203125 -5.796875 C 3.203125 -4.765625 3.429688 -3.90625 3.890625 -3.21875 C 4.347656 -2.53125 5.082031 -2.1875 6.09375 -2.1875 C 6.59375 -2.1875 7.140625 -2.347656 7.734375 -2.671875 C 8.328125 -3.003906 8.898438 -3.492188 9.453125 -4.140625 C 10.003906 -4.796875 10.5 -5.601562 10.9375 -6.5625 C 11.375 -7.53125 11.679688 -8.65625 11.859375 -9.9375 C 11.898438 -10.25 12.046875 -10.507812 12.296875 -10.71875 C 12.546875 -10.9375 12.828125 -11.046875 13.140625 -11.046875 C 13.492188 -11.046875 13.789062 -10.914062 14.03125 -10.65625 C 14.269531 -10.40625 14.390625 -10.109375 14.390625 -9.765625 C 14.390625 -9.722656 14.359375 -9.335938 14.296875 -8.609375 C 14.242188 -7.878906 14.171875 -6.910156 14.078125 -5.703125 C 13.992188 -4.503906 13.894531 -3.117188 13.78125 -1.546875 C 13.664062 0.0234375 13.566406 1.6875 13.484375 3.4375 Z M 13.234375 9.171875 C 13.210938 9.859375 13.195312 10.523438 13.1875 11.171875 C 13.175781 11.828125 13.171875 12.472656 13.171875 13.109375 C 13.171875 16.003906 13.179688 18.703125 13.203125 21.203125 C 13.222656 23.710938 13.316406 25.894531 13.484375 27.75 C 13.660156 29.601562 13.941406 31.0625 14.328125 32.125 C 14.722656 33.1875 15.28125 33.71875 16 33.71875 C 16.582031 33.71875 17.046875 33.460938 17.390625 32.953125 C 17.742188 32.453125 18.007812 31.851562 18.1875 31.15625 C 18.375 30.46875 18.492188 29.757812 18.546875 29.03125 C 18.597656 28.300781 18.625 27.707031 18.625 27.25 C 18.625 25.75 18.484375 24.15625 18.203125 22.46875 C 17.929688 20.789062 17.550781 19.128906 17.0625 17.484375 C 16.582031 15.847656 16.007812 14.304688 15.34375 12.859375 C 14.6875 11.410156 13.984375 10.179688 13.234375 9.171875 Z M 13.234375 9.171875 "/></g></g><g transform="translate(613.419737, 1161.037152)"><g><path d="M 12.46875 -3.78125 C 11.675781 -2.5 10.757812 -1.484375 9.71875 -0.734375 C 8.675781 0.00390625 7.625 0.375 6.5625 0.375 C 5.71875 0.375 4.957031 0.21875 4.28125 -0.09375 C 3.601562 -0.414062 3.015625 -0.863281 2.515625 -1.4375 C 2.023438 -2.007812 1.648438 -2.695312 1.390625 -3.5 C 1.140625 -4.3125 1.015625 -5.222656 1.015625 -6.234375 C 1.015625 -7.804688 1.164062 -9.195312 1.46875 -10.40625 C 1.769531 -11.625 2.097656 -12.640625 2.453125 -13.453125 C 2.816406 -14.273438 3.15625 -14.898438 3.46875 -15.328125 C 3.78125 -15.753906 3.9375 -15.96875 3.9375 -15.96875 C 4.050781 -16.101562 4.191406 -16.203125 4.359375 -16.265625 C 4.523438 -16.335938 4.703125 -16.375 4.890625 -16.375 C 5.242188 -16.375 5.535156 -16.242188 5.765625 -15.984375 C 6.003906 -15.722656 6.125 -15.425781 6.125 -15.09375 C 6.125 -14.957031 6.097656 -14.820312 6.046875 -14.6875 C 5.992188 -14.550781 5.929688 -14.414062 5.859375 -14.28125 C 5.742188 -14.082031 5.5625 -13.773438 5.3125 -13.359375 C 5.070312 -12.941406 4.816406 -12.394531 4.546875 -11.71875 C 4.273438 -11.050781 4.035156 -10.257812 3.828125 -9.34375 C 3.628906 -8.4375 3.53125 -7.398438 3.53125 -6.234375 C 3.53125 -4.910156 3.796875 -3.90625 4.328125 -3.21875 C 4.859375 -2.53125 5.601562 -2.1875 6.5625 -2.1875 C 6.96875 -2.1875 7.4375 -2.316406 7.96875 -2.578125 C 8.5 -2.835938 9.015625 -3.234375 9.515625 -3.765625 C 10.023438 -4.304688 10.46875 -4.992188 10.84375 -5.828125 C 11.226562 -6.660156 11.476562 -7.640625 11.59375 -8.765625 L 12.09375 -14.5625 C 12.132812 -14.894531 12.28125 -15.171875 12.53125 -15.390625 C 12.78125 -15.617188 13.070312 -15.734375 13.40625 -15.734375 C 13.789062 -15.734375 14.09375 -15.59375 14.3125 -15.3125 C 14.539062 -15.03125 14.65625 -14.710938 14.65625 -14.359375 L 14.21875 -8.765625 C 14.175781 -8.285156 14.191406 -7.664062 14.265625 -6.90625 C 14.347656 -6.144531 14.507812 -5.390625 14.75 -4.640625 C 15 -3.898438 15.367188 -3.265625 15.859375 -2.734375 C 16.359375 -2.210938 17.015625 -1.953125 17.828125 -1.953125 C 18.410156 -1.953125 18.984375 -2.101562 19.546875 -2.40625 C 20.109375 -2.707031 20.644531 -3.101562 21.15625 -3.59375 C 21.675781 -4.09375 22.15625 -4.648438 22.59375 -5.265625 C 23.03125 -5.890625 23.429688 -6.515625 23.796875 -7.140625 C 24.171875 -7.773438 24.492188 -8.375 24.765625 -8.9375 C 25.035156 -9.507812 25.257812 -10 25.4375 -10.40625 C 25.550781 -10.65625 25.707031 -10.847656 25.90625 -10.984375 C 26.113281 -11.117188 26.335938 -11.1875 26.578125 -11.1875 C 26.984375 -11.1875 27.296875 -11.050781 27.515625 -10.78125 C 27.742188 -10.507812 27.859375 -10.21875 27.859375 -9.90625 C 27.859375 -9.726562 27.828125 -9.5625 27.765625 -9.40625 C 27.671875 -9.21875 27.492188 -8.835938 27.234375 -8.265625 C 26.984375 -7.691406 26.648438 -7.039062 26.234375 -6.3125 C 25.816406 -5.582031 25.316406 -4.8125 24.734375 -4 C 24.148438 -3.195312 23.5 -2.453125 22.78125 -1.765625 C 22.0625 -1.078125 21.28125 -0.515625 20.4375 -0.078125 C 19.59375 0.359375 18.6875 0.578125 17.71875 0.578125 C 16.394531 0.578125 15.296875 0.203125 14.421875 -0.546875 C 13.546875 -1.304688 12.894531 -2.382812 12.46875 -3.78125 Z M 12.46875 -3.78125 "/></g></g><g transform="translate(637.576474, 1161.037152)"><g><path d="M 6.765625 -26.453125 C 6.765625 -25.597656 6.46875 -24.867188 5.875 -24.265625 C 5.28125 -23.671875 4.554688 -23.375 3.703125 -23.375 C 2.847656 -23.375 2.125 -23.671875 1.53125 -24.265625 C 0.9375 -24.867188 0.640625 -25.597656 0.640625 -26.453125 C 0.640625 -26.878906 0.71875 -27.273438 0.875 -27.640625 C 1.03125 -28.015625 1.25 -28.34375 1.53125 -28.625 C 1.8125 -28.90625 2.132812 -29.125 2.5 -29.28125 C 2.875 -29.4375 3.273438 -29.515625 3.703125 -29.515625 C 4.128906 -29.515625 4.523438 -29.4375 4.890625 -29.28125 C 5.265625 -29.125 5.59375 -28.90625 5.875 -28.625 C 6.15625 -28.34375 6.375 -28.015625 6.53125 -27.640625 C 6.6875 -27.273438 6.765625 -26.878906 6.765625 -26.453125 Z M 1.3125 -6.703125 C 1.3125 -9.941406 1.515625 -13.164062 1.921875 -16.375 C 1.960938 -16.6875 2.101562 -16.957031 2.34375 -17.1875 C 2.582031 -17.425781 2.890625 -17.546875 3.265625 -17.546875 C 3.609375 -17.546875 3.890625 -17.414062 4.109375 -17.15625 C 4.335938 -16.90625 4.453125 -16.609375 4.453125 -16.265625 C 4.453125 -16.140625 4.421875 -15.738281 4.359375 -15.0625 C 4.304688 -14.382812 4.238281 -13.578125 4.15625 -12.640625 C 4.082031 -11.710938 4.015625 -10.726562 3.953125 -9.6875 C 3.898438 -8.644531 3.875 -7.6875 3.875 -6.8125 C 3.875 -5.613281 3.988281 -4.648438 4.21875 -3.921875 C 4.457031 -3.191406 4.757812 -2.625 5.125 -2.21875 C 5.5 -1.820312 5.894531 -1.554688 6.3125 -1.421875 C 6.726562 -1.285156 7.128906 -1.21875 7.515625 -1.21875 C 8.140625 -1.21875 8.789062 -1.441406 9.46875 -1.890625 C 10.144531 -2.335938 10.832031 -2.960938 11.53125 -3.765625 C 12.238281 -4.578125 12.953125 -5.550781 13.671875 -6.6875 C 14.390625 -7.820312 15.097656 -9.085938 15.796875 -10.484375 C 15.910156 -10.703125 16.066406 -10.875 16.265625 -11 C 16.472656 -11.125 16.703125 -11.1875 16.953125 -11.1875 C 17.304688 -11.1875 17.597656 -11.050781 17.828125 -10.78125 C 18.066406 -10.507812 18.1875 -10.21875 18.1875 -9.90625 C 18.1875 -9.675781 18.144531 -9.484375 18.0625 -9.328125 C 17.789062 -8.816406 17.453125 -8.1875 17.046875 -7.4375 C 16.640625 -6.695312 16.175781 -5.929688 15.65625 -5.140625 C 15.144531 -4.359375 14.578125 -3.582031 13.953125 -2.8125 C 13.335938 -2.039062 12.679688 -1.34375 11.984375 -0.71875 C 11.296875 -0.101562 10.566406 0.390625 9.796875 0.765625 C 9.035156 1.148438 8.265625 1.34375 7.484375 1.34375 C 6.472656 1.34375 5.582031 1.128906 4.8125 0.703125 C 4.050781 0.273438 3.40625 -0.296875 2.875 -1.015625 C 2.351562 -1.734375 1.960938 -2.578125 1.703125 -3.546875 C 1.441406 -4.523438 1.3125 -5.578125 1.3125 -6.703125 Z M 4.890625 -26.453125 C 4.890625 -26.765625 4.769531 -27.035156 4.53125 -27.265625 C 4.289062 -27.503906 4.015625 -27.625 3.703125 -27.625 C 3.390625 -27.625 3.117188 -27.503906 2.890625 -27.265625 C 2.671875 -27.035156 2.5625 -26.765625 2.5625 -26.453125 C 2.5625 -26.128906 2.671875 -25.851562 2.890625 -25.625 C 3.117188 -25.40625 3.390625 -25.296875 3.703125 -25.296875 C 4.015625 -25.296875 4.289062 -25.40625 4.53125 -25.625 C 4.769531 -25.851562 4.890625 -26.128906 4.890625 -26.453125 Z M 4.890625 -26.453125 "/></g></g><g transform="translate(652.063777, 1161.037152)"><g/></g><g transform="translate(667.224909, 1161.037152)"><g><path d="M 5.328125 -3.703125 C 5.796875 -3.054688 6.398438 -2.535156 7.140625 -2.140625 C 7.878906 -1.742188 8.789062 -1.546875 9.875 -1.546875 C 10.96875 -1.546875 11.960938 -1.8125 12.859375 -2.34375 C 13.765625 -2.875 14.585938 -3.5625 15.328125 -4.40625 C 16.066406 -5.257812 16.726562 -6.210938 17.3125 -7.265625 C 17.894531 -8.328125 18.425781 -9.382812 18.90625 -10.4375 C 19.007812 -10.6875 19.160156 -10.875 19.359375 -11 C 19.566406 -11.125 19.796875 -11.1875 20.046875 -11.1875 C 20.429688 -11.1875 20.738281 -11.050781 20.96875 -10.78125 C 21.207031 -10.507812 21.328125 -10.21875 21.328125 -9.90625 C 21.328125 -9.789062 21.316406 -9.691406 21.296875 -9.609375 C 21.273438 -9.535156 21.238281 -9.453125 21.1875 -9.359375 C 19.644531 -5.953125 17.957031 -3.382812 16.125 -1.65625 C 14.289062 0.0703125 12.21875 0.960938 9.90625 1.015625 C 8.425781 1.015625 7.144531 0.726562 6.0625 0.15625 C 4.988281 -0.414062 4.101562 -1.15625 3.40625 -2.0625 C 2.707031 -2.976562 2.1875 -4.007812 1.84375 -5.15625 C 1.507812 -6.300781 1.34375 -7.445312 1.34375 -8.59375 C 1.34375 -9.738281 1.484375 -10.789062 1.765625 -11.75 C 2.046875 -12.71875 2.453125 -13.5625 2.984375 -14.28125 C 3.515625 -15 4.144531 -15.5625 4.875 -15.96875 C 5.601562 -16.375 6.40625 -16.578125 7.28125 -16.578125 C 7.789062 -16.578125 8.296875 -16.46875 8.796875 -16.25 C 9.304688 -16.039062 9.765625 -15.738281 10.171875 -15.34375 C 10.578125 -14.945312 10.898438 -14.46875 11.140625 -13.90625 C 11.390625 -13.351562 11.515625 -12.71875 11.515625 -12 C 11.515625 -11.070312 11.359375 -10.203125 11.046875 -9.390625 C 10.734375 -8.585938 10.300781 -7.835938 9.75 -7.140625 C 9.195312 -6.441406 8.539062 -5.800781 7.78125 -5.21875 C 7.019531 -4.632812 6.203125 -4.128906 5.328125 -3.703125 Z M 4.3125 -5.890625 C 5.007812 -6.179688 5.644531 -6.550781 6.21875 -7 C 6.789062 -7.457031 7.273438 -7.953125 7.671875 -8.484375 C 8.078125 -9.023438 8.394531 -9.59375 8.625 -10.1875 C 8.851562 -10.78125 8.96875 -11.382812 8.96875 -12 C 8.96875 -12.664062 8.796875 -13.171875 8.453125 -13.515625 C 8.117188 -13.867188 7.726562 -14.046875 7.28125 -14.046875 C 6.675781 -14.046875 6.160156 -13.875 5.734375 -13.53125 C 5.304688 -13.195312 4.957031 -12.757812 4.6875 -12.21875 C 4.414062 -11.6875 4.21875 -11.085938 4.09375 -10.421875 C 3.96875 -9.765625 3.90625 -9.109375 3.90625 -8.453125 C 3.90625 -8.046875 3.941406 -7.617188 4.015625 -7.171875 C 4.097656 -6.722656 4.195312 -6.296875 4.3125 -5.890625 Z M 5.59375 -21.796875 L 10.984375 -26.921875 C 11.210938 -27.117188 11.472656 -27.21875 11.765625 -27.21875 C 12.054688 -27.21875 12.3125 -27.101562 12.53125 -26.875 C 12.757812 -26.65625 12.875 -26.390625 12.875 -26.078125 C 12.875 -25.765625 12.757812 -25.503906 12.53125 -25.296875 L 7.140625 -20.1875 C 6.890625 -19.976562 6.632812 -19.875 6.375 -19.875 C 6.050781 -19.875 5.78125 -19.984375 5.5625 -20.203125 C 5.351562 -20.429688 5.25 -20.691406 5.25 -20.984375 C 5.25 -21.304688 5.363281 -21.578125 5.59375 -21.796875 Z M 5.59375 -21.796875 "/></g></g><g transform="translate(684.845513, 1161.037152)"><g><path d="M 14.921875 -10.609375 C 14.585938 -9.035156 14.101562 -7.566406 13.46875 -6.203125 C 12.84375 -4.847656 12.175781 -3.664062 11.46875 -2.65625 C 10.757812 -1.644531 10.046875 -0.847656 9.328125 -0.265625 C 8.609375 0.316406 7.992188 0.628906 7.484375 0.671875 C 6.898438 0.671875 6.253906 0.378906 5.546875 -0.203125 C 4.835938 -0.785156 4.160156 -1.597656 3.515625 -2.640625 C 2.878906 -3.691406 2.347656 -4.9375 1.921875 -6.375 C 1.492188 -7.8125 1.28125 -9.367188 1.28125 -11.046875 C 1.28125 -12.535156 1.410156 -13.660156 1.671875 -14.421875 C 1.929688 -15.179688 2.09375 -15.617188 2.15625 -15.734375 C 2.269531 -15.929688 2.421875 -16.085938 2.609375 -16.203125 C 2.796875 -16.316406 3.015625 -16.375 3.265625 -16.375 C 3.648438 -16.375 3.953125 -16.242188 4.171875 -15.984375 C 4.398438 -15.722656 4.515625 -15.4375 4.515625 -15.125 C 4.515625 -14.90625 4.46875 -14.71875 4.375 -14.5625 C 4.351562 -14.507812 4.253906 -14.203125 4.078125 -13.640625 C 3.898438 -13.078125 3.8125 -12.238281 3.8125 -11.125 C 3.8125 -9.789062 3.941406 -8.5625 4.203125 -7.4375 C 4.472656 -6.320312 4.800781 -5.359375 5.1875 -4.546875 C 5.570312 -3.734375 5.972656 -3.097656 6.390625 -2.640625 C 6.804688 -2.179688 7.144531 -1.953125 7.40625 -1.953125 C 7.59375 -1.953125 7.859375 -2.117188 8.203125 -2.453125 C 8.546875 -2.796875 8.914062 -3.257812 9.3125 -3.84375 C 9.707031 -4.425781 10.113281 -5.117188 10.53125 -5.921875 C 10.945312 -6.734375 11.328125 -7.613281 11.671875 -8.5625 C 12.023438 -9.519531 12.304688 -10.53125 12.515625 -11.59375 C 12.734375 -12.664062 12.84375 -13.753906 12.84375 -14.859375 C 12.84375 -15.078125 12.832031 -15.289062 12.8125 -15.5 C 12.800781 -15.71875 12.796875 -15.941406 12.796875 -16.171875 C 12.796875 -16.554688 12.914062 -16.875 13.15625 -17.125 C 13.394531 -17.382812 13.703125 -17.515625 14.078125 -17.515625 C 14.367188 -17.515625 14.632812 -17.425781 14.875 -17.25 C 15.113281 -17.070312 15.265625 -16.828125 15.328125 -16.515625 C 15.328125 -16.535156 15.367188 -16.351562 15.453125 -15.96875 C 15.546875 -15.582031 15.695312 -15.09375 15.90625 -14.5 C 16.125 -13.90625 16.394531 -13.257812 16.71875 -12.5625 C 17.050781 -11.863281 17.445312 -11.21875 17.90625 -10.625 C 18.363281 -10.03125 18.894531 -9.53125 19.5 -9.125 C 20.113281 -8.726562 20.8125 -8.53125 21.59375 -8.53125 C 22.019531 -8.53125 22.390625 -8.617188 22.703125 -8.796875 C 23.023438 -8.972656 23.285156 -9.171875 23.484375 -9.390625 C 23.679688 -9.617188 23.832031 -9.832031 23.9375 -10.03125 C 24.039062 -10.238281 24.09375 -10.351562 24.09375 -10.375 C 24.175781 -10.625 24.320312 -10.820312 24.53125 -10.96875 C 24.75 -11.113281 24.992188 -11.1875 25.265625 -11.1875 C 25.628906 -11.1875 25.929688 -11.054688 26.171875 -10.796875 C 26.421875 -10.535156 26.546875 -10.238281 26.546875 -9.90625 C 26.546875 -9.75 26.515625 -9.59375 26.453125 -9.4375 C 26.316406 -9.125 26.117188 -8.765625 25.859375 -8.359375 C 25.597656 -7.953125 25.265625 -7.566406 24.859375 -7.203125 C 24.460938 -6.847656 23.988281 -6.550781 23.4375 -6.3125 C 22.882812 -6.082031 22.269531 -5.96875 21.59375 -5.96875 C 20.8125 -5.96875 20.082031 -6.109375 19.40625 -6.390625 C 18.726562 -6.671875 18.113281 -7.03125 17.5625 -7.46875 C 17.019531 -7.90625 16.519531 -8.394531 16.0625 -8.9375 C 15.613281 -9.488281 15.234375 -10.046875 14.921875 -10.609375 Z M 14.921875 -10.609375 "/></g></g><g transform="translate(707.688284, 1161.037152)"><g><path d="M 16.8125 -3.703125 C 16.25 -3.703125 15.753906 -3.75 15.328125 -3.84375 C 14.992188 -3.164062 14.585938 -2.539062 14.109375 -1.96875 C 13.640625 -1.394531 13.097656 -0.894531 12.484375 -0.46875 C 11.867188 -0.0390625 11.175781 0.289062 10.40625 0.53125 C 9.644531 0.78125 8.816406 0.90625 7.921875 0.90625 C 6.859375 0.90625 5.890625 0.71875 5.015625 0.34375 C 4.140625 -0.0195312 3.375 -0.53125 2.71875 -1.1875 C 2.070312 -1.851562 1.566406 -2.648438 1.203125 -3.578125 C 0.847656 -4.515625 0.671875 -5.546875 0.671875 -6.671875 C 0.671875 -8.109375 0.925781 -9.359375 1.4375 -10.421875 C 1.957031 -11.492188 2.554688 -12.382812 3.234375 -13.09375 C 3.910156 -13.800781 4.582031 -14.328125 5.25 -14.671875 C 5.925781 -15.015625 6.429688 -15.1875 6.765625 -15.1875 C 7.148438 -15.1875 7.4375 -15.085938 7.625 -14.890625 C 7.820312 -14.691406 7.921875 -14.421875 7.921875 -14.078125 C 7.921875 -13.703125 7.800781 -13.414062 7.5625 -13.21875 C 7.320312 -13.03125 7.023438 -12.847656 6.671875 -12.671875 C 6.304688 -12.492188 5.921875 -12.238281 5.515625 -11.90625 C 5.117188 -11.582031 4.742188 -11.171875 4.390625 -10.671875 C 4.046875 -10.179688 3.757812 -9.597656 3.53125 -8.921875 C 3.3125 -8.253906 3.203125 -7.503906 3.203125 -6.671875 C 3.203125 -5.929688 3.3125 -5.238281 3.53125 -4.59375 C 3.757812 -3.957031 4.085938 -3.40625 4.515625 -2.9375 C 4.941406 -2.476562 5.445312 -2.117188 6.03125 -1.859375 C 6.613281 -1.609375 7.265625 -1.484375 7.984375 -1.484375 C 9.265625 -1.484375 10.328125 -1.78125 11.171875 -2.375 C 12.015625 -2.96875 12.660156 -3.726562 13.109375 -4.65625 C 11.785156 -5.34375 10.695312 -6.328125 9.84375 -7.609375 C 8.988281 -8.890625 8.5625 -10.328125 8.5625 -11.921875 C 8.5625 -13.203125 8.867188 -14.242188 9.484375 -15.046875 C 10.097656 -15.859375 10.910156 -16.265625 11.921875 -16.265625 C 12.535156 -16.265625 13.109375 -16.117188 13.640625 -15.828125 C 14.179688 -15.535156 14.660156 -15.078125 15.078125 -14.453125 C 15.492188 -13.828125 15.820312 -13.019531 16.0625 -12.03125 C 16.3125 -11.039062 16.4375 -9.859375 16.4375 -8.484375 C 16.4375 -7.765625 16.347656 -7.015625 16.171875 -6.234375 C 16.304688 -6.210938 16.441406 -6.203125 16.578125 -6.203125 C 16.710938 -6.203125 16.859375 -6.203125 17.015625 -6.203125 C 17.773438 -6.203125 18.457031 -6.289062 19.0625 -6.46875 C 19.675781 -6.644531 20.226562 -6.910156 20.71875 -7.265625 C 21.21875 -7.628906 21.660156 -8.09375 22.046875 -8.65625 C 22.441406 -9.21875 22.820312 -9.867188 23.1875 -10.609375 C 23.25 -10.742188 23.390625 -10.875 23.609375 -11 C 23.835938 -11.125 24.066406 -11.1875 24.296875 -11.1875 C 24.585938 -11.1875 24.859375 -11.066406 25.109375 -10.828125 C 25.367188 -10.597656 25.5 -10.289062 25.5 -9.90625 C 25.5 -9.726562 25.453125 -9.53125 25.359375 -9.3125 C 25.273438 -9.101562 25.1875 -8.90625 25.09375 -8.71875 C 24.71875 -8.050781 24.273438 -7.40625 23.765625 -6.78125 C 23.265625 -6.164062 22.671875 -5.628906 21.984375 -5.171875 C 21.296875 -4.710938 20.523438 -4.347656 19.671875 -4.078125 C 18.816406 -3.804688 17.863281 -3.679688 16.8125 -3.703125 Z M 11.046875 -12.203125 C 11.046875 -11.773438 11.101562 -11.320312 11.21875 -10.84375 C 11.332031 -10.375 11.503906 -9.910156 11.734375 -9.453125 C 11.972656 -8.992188 12.265625 -8.554688 12.609375 -8.140625 C 12.960938 -7.722656 13.375 -7.367188 13.84375 -7.078125 C 13.914062 -7.546875 13.953125 -8.003906 13.953125 -8.453125 C 13.953125 -9.054688 13.90625 -9.671875 13.8125 -10.296875 C 13.71875 -10.929688 13.585938 -11.515625 13.421875 -12.046875 C 13.253906 -12.578125 13.046875 -13.003906 12.796875 -13.328125 C 12.554688 -13.648438 12.265625 -13.8125 11.921875 -13.8125 C 11.785156 -13.8125 11.601562 -13.707031 11.375 -13.5 C 11.15625 -13.300781 11.046875 -12.867188 11.046875 -12.203125 Z M 11.046875 -12.203125 "/></g></g><g transform="translate(729.486622, 1161.037152)"><g><path d="M 20.453125 -9.328125 C 20.203125 -8.816406 19.890625 -8.207031 19.515625 -7.5 C 19.148438 -6.789062 18.726562 -6.050781 18.25 -5.28125 C 17.78125 -4.519531 17.253906 -3.765625 16.671875 -3.015625 C 16.085938 -2.265625 15.453125 -1.585938 14.765625 -0.984375 C 14.085938 -0.390625 13.359375 0.0859375 12.578125 0.453125 C 11.804688 0.828125 10.984375 1.015625 10.109375 1.015625 C 8.765625 1.015625 7.609375 0.597656 6.640625 -0.234375 C 5.671875 -1.066406 4.847656 -2.15625 4.171875 -3.5 C 3.503906 -4.851562 2.960938 -6.390625 2.546875 -8.109375 C 2.128906 -9.828125 1.804688 -11.578125 1.578125 -13.359375 C 1.359375 -15.140625 1.207031 -16.875 1.125 -18.5625 C 1.050781 -20.25 1.015625 -21.742188 1.015625 -23.046875 C 1.015625 -24.929688 1.070312 -26.882812 1.1875 -28.90625 C 1.3125 -30.925781 1.507812 -32.898438 1.78125 -34.828125 C 2.050781 -36.765625 2.394531 -38.597656 2.8125 -40.328125 C 3.226562 -42.054688 3.722656 -43.570312 4.296875 -44.875 C 4.867188 -46.175781 5.523438 -47.207031 6.265625 -47.96875 C 7.003906 -48.738281 7.847656 -49.125 8.796875 -49.125 C 9.535156 -49.125 10.203125 -48.945312 10.796875 -48.59375 C 11.390625 -48.25 11.890625 -47.679688 12.296875 -46.890625 C 12.703125 -46.109375 13.015625 -45.085938 13.234375 -43.828125 C 13.460938 -42.578125 13.578125 -41.039062 13.578125 -39.21875 C 13.578125 -36.96875 13.335938 -34.644531 12.859375 -32.25 C 12.390625 -29.863281 11.75 -27.457031 10.9375 -25.03125 C 10.132812 -22.601562 9.179688 -20.179688 8.078125 -17.765625 C 6.984375 -15.359375 5.804688 -13.007812 4.546875 -10.71875 C 5.109375 -7.863281 5.859375 -5.617188 6.796875 -3.984375 C 7.742188 -2.359375 8.878906 -1.546875 10.203125 -1.546875 C 11.109375 -1.546875 11.972656 -1.898438 12.796875 -2.609375 C 13.628906 -3.316406 14.394531 -4.148438 15.09375 -5.109375 C 15.789062 -6.078125 16.398438 -7.0625 16.921875 -8.0625 C 17.453125 -9.0625 17.863281 -9.867188 18.15625 -10.484375 C 18.269531 -10.703125 18.425781 -10.875 18.625 -11 C 18.832031 -11.125 19.0625 -11.1875 19.3125 -11.1875 C 19.6875 -11.1875 19.988281 -11.050781 20.21875 -10.78125 C 20.457031 -10.507812 20.578125 -10.207031 20.578125 -9.875 C 20.578125 -9.738281 20.535156 -9.554688 20.453125 -9.328125 Z M 3.578125 -22.875 C 3.578125 -21.4375 3.609375 -20.054688 3.671875 -18.734375 C 3.742188 -17.410156 3.832031 -16.140625 3.9375 -14.921875 C 4.882812 -16.742188 5.785156 -18.679688 6.640625 -20.734375 C 7.492188 -22.785156 8.242188 -24.863281 8.890625 -26.96875 C 9.546875 -29.070312 10.066406 -31.160156 10.453125 -33.234375 C 10.847656 -35.316406 11.046875 -37.300781 11.046875 -39.1875 C 11.046875 -41.832031 10.832031 -43.726562 10.40625 -44.875 C 9.976562 -46.019531 9.40625 -46.59375 8.6875 -46.59375 C 8.21875 -46.59375 7.765625 -46.265625 7.328125 -45.609375 C 6.890625 -44.960938 6.476562 -44.078125 6.09375 -42.953125 C 5.71875 -41.828125 5.367188 -40.5 5.046875 -38.96875 C 4.734375 -37.445312 4.46875 -35.8125 4.25 -34.0625 C 4.039062 -32.3125 3.875 -30.476562 3.75 -28.5625 C 3.632812 -26.65625 3.578125 -24.757812 3.578125 -22.875 Z M 3.578125 -22.875 "/></g></g><g transform="translate(746.366016, 1161.037152)"><g><path d="M 12.46875 -3.78125 C 11.675781 -2.5 10.757812 -1.484375 9.71875 -0.734375 C 8.675781 0.00390625 7.625 0.375 6.5625 0.375 C 5.71875 0.375 4.957031 0.21875 4.28125 -0.09375 C 3.601562 -0.414062 3.015625 -0.863281 2.515625 -1.4375 C 2.023438 -2.007812 1.648438 -2.695312 1.390625 -3.5 C 1.140625 -4.3125 1.015625 -5.222656 1.015625 -6.234375 C 1.015625 -7.804688 1.164062 -9.195312 1.46875 -10.40625 C 1.769531 -11.625 2.097656 -12.640625 2.453125 -13.453125 C 2.816406 -14.273438 3.15625 -14.898438 3.46875 -15.328125 C 3.78125 -15.753906 3.9375 -15.96875 3.9375 -15.96875 C 4.050781 -16.101562 4.191406 -16.203125 4.359375 -16.265625 C 4.523438 -16.335938 4.703125 -16.375 4.890625 -16.375 C 5.242188 -16.375 5.535156 -16.242188 5.765625 -15.984375 C 6.003906 -15.722656 6.125 -15.425781 6.125 -15.09375 C 6.125 -14.957031 6.097656 -14.820312 6.046875 -14.6875 C 5.992188 -14.550781 5.929688 -14.414062 5.859375 -14.28125 C 5.742188 -14.082031 5.5625 -13.773438 5.3125 -13.359375 C 5.070312 -12.941406 4.816406 -12.394531 4.546875 -11.71875 C 4.273438 -11.050781 4.035156 -10.257812 3.828125 -9.34375 C 3.628906 -8.4375 3.53125 -7.398438 3.53125 -6.234375 C 3.53125 -4.910156 3.796875 -3.90625 4.328125 -3.21875 C 4.859375 -2.53125 5.601562 -2.1875 6.5625 -2.1875 C 6.96875 -2.1875 7.4375 -2.316406 7.96875 -2.578125 C 8.5 -2.835938 9.015625 -3.234375 9.515625 -3.765625 C 10.023438 -4.304688 10.46875 -4.992188 10.84375 -5.828125 C 11.226562 -6.660156 11.476562 -7.640625 11.59375 -8.765625 L 12.09375 -14.5625 C 12.132812 -14.894531 12.28125 -15.171875 12.53125 -15.390625 C 12.78125 -15.617188 13.070312 -15.734375 13.40625 -15.734375 C 13.789062 -15.734375 14.09375 -15.59375 14.3125 -15.3125 C 14.539062 -15.03125 14.65625 -14.710938 14.65625 -14.359375 L 14.21875 -8.765625 C 14.175781 -8.285156 14.191406 -7.664062 14.265625 -6.90625 C 14.347656 -6.144531 14.507812 -5.390625 14.75 -4.640625 C 15 -3.898438 15.367188 -3.265625 15.859375 -2.734375 C 16.359375 -2.210938 17.015625 -1.953125 17.828125 -1.953125 C 18.410156 -1.953125 18.984375 -2.101562 19.546875 -2.40625 C 20.109375 -2.707031 20.644531 -3.101562 21.15625 -3.59375 C 21.675781 -4.09375 22.15625 -4.648438 22.59375 -5.265625 C 23.03125 -5.890625 23.429688 -6.515625 23.796875 -7.140625 C 24.171875 -7.773438 24.492188 -8.375 24.765625 -8.9375 C 25.035156 -9.507812 25.257812 -10 25.4375 -10.40625 C 25.550781 -10.65625 25.707031 -10.847656 25.90625 -10.984375 C 26.113281 -11.117188 26.335938 -11.1875 26.578125 -11.1875 C 26.984375 -11.1875 27.296875 -11.050781 27.515625 -10.78125 C 27.742188 -10.507812 27.859375 -10.21875 27.859375 -9.90625 C 27.859375 -9.726562 27.828125 -9.5625 27.765625 -9.40625 C 27.671875 -9.21875 27.492188 -8.835938 27.234375 -8.265625 C 26.984375 -7.691406 26.648438 -7.039062 26.234375 -6.3125 C 25.816406 -5.582031 25.316406 -4.8125 24.734375 -4 C 24.148438 -3.195312 23.5 -2.453125 22.78125 -1.765625 C 22.0625 -1.078125 21.28125 -0.515625 20.4375 -0.078125 C 19.59375 0.359375 18.6875 0.578125 17.71875 0.578125 C 16.394531 0.578125 15.296875 0.203125 14.421875 -0.546875 C 13.546875 -1.304688 12.894531 -2.382812 12.46875 -3.78125 Z M 12.46875 -3.78125 "/></g></g><g transform="translate(770.522752, 1161.037152)"><g><path d="M 5.328125 -3.703125 C 5.796875 -3.054688 6.398438 -2.535156 7.140625 -2.140625 C 7.878906 -1.742188 8.789062 -1.546875 9.875 -1.546875 C 10.96875 -1.546875 11.960938 -1.8125 12.859375 -2.34375 C 13.765625 -2.875 14.585938 -3.5625 15.328125 -4.40625 C 16.066406 -5.257812 16.726562 -6.210938 17.3125 -7.265625 C 17.894531 -8.328125 18.425781 -9.382812 18.90625 -10.4375 C 19.007812 -10.6875 19.160156 -10.875 19.359375 -11 C 19.566406 -11.125 19.796875 -11.1875 20.046875 -11.1875 C 20.429688 -11.1875 20.738281 -11.050781 20.96875 -10.78125 C 21.207031 -10.507812 21.328125 -10.21875 21.328125 -9.90625 C 21.328125 -9.789062 21.316406 -9.691406 21.296875 -9.609375 C 21.273438 -9.535156 21.238281 -9.453125 21.1875 -9.359375 C 19.644531 -5.953125 17.957031 -3.382812 16.125 -1.65625 C 14.289062 0.0703125 12.21875 0.960938 9.90625 1.015625 C 8.425781 1.015625 7.144531 0.726562 6.0625 0.15625 C 4.988281 -0.414062 4.101562 -1.15625 3.40625 -2.0625 C 2.707031 -2.976562 2.1875 -4.007812 1.84375 -5.15625 C 1.507812 -6.300781 1.34375 -7.445312 1.34375 -8.59375 C 1.34375 -9.738281 1.484375 -10.789062 1.765625 -11.75 C 2.046875 -12.71875 2.453125 -13.5625 2.984375 -14.28125 C 3.515625 -15 4.144531 -15.5625 4.875 -15.96875 C 5.601562 -16.375 6.40625 -16.578125 7.28125 -16.578125 C 7.789062 -16.578125 8.296875 -16.46875 8.796875 -16.25 C 9.304688 -16.039062 9.765625 -15.738281 10.171875 -15.34375 C 10.578125 -14.945312 10.898438 -14.46875 11.140625 -13.90625 C 11.390625 -13.351562 11.515625 -12.71875 11.515625 -12 C 11.515625 -11.070312 11.359375 -10.203125 11.046875 -9.390625 C 10.734375 -8.585938 10.300781 -7.835938 9.75 -7.140625 C 9.195312 -6.441406 8.539062 -5.800781 7.78125 -5.21875 C 7.019531 -4.632812 6.203125 -4.128906 5.328125 -3.703125 Z M 4.3125 -5.890625 C 5.007812 -6.179688 5.644531 -6.550781 6.21875 -7 C 6.789062 -7.457031 7.273438 -7.953125 7.671875 -8.484375 C 8.078125 -9.023438 8.394531 -9.59375 8.625 -10.1875 C 8.851562 -10.78125 8.96875 -11.382812 8.96875 -12 C 8.96875 -12.664062 8.796875 -13.171875 8.453125 -13.515625 C 8.117188 -13.867188 7.726562 -14.046875 7.28125 -14.046875 C 6.675781 -14.046875 6.160156 -13.875 5.734375 -13.53125 C 5.304688 -13.195312 4.957031 -12.757812 4.6875 -12.21875 C 4.414062 -11.6875 4.21875 -11.085938 4.09375 -10.421875 C 3.96875 -9.765625 3.90625 -9.109375 3.90625 -8.453125 C 3.90625 -8.046875 3.941406 -7.617188 4.015625 -7.171875 C 4.097656 -6.722656 4.195312 -6.296875 4.3125 -5.890625 Z M 4.3125 -5.890625 "/></g></g><g transform="translate(788.143356, 1161.037152)"><g/></g><g transform="translate(803.304487, 1161.037152)"><g><path d="M 27.328125 -9.40625 C 27.234375 -9.21875 27.046875 -8.835938 26.765625 -8.265625 C 26.484375 -7.691406 26.125 -7.035156 25.6875 -6.296875 C 25.25 -5.554688 24.738281 -4.78125 24.15625 -3.96875 C 23.570312 -3.164062 22.921875 -2.425781 22.203125 -1.75 C 21.484375 -1.070312 20.707031 -0.515625 19.875 -0.078125 C 19.039062 0.359375 18.164062 0.578125 17.25 0.578125 C 15.945312 0.578125 14.851562 0.160156 13.96875 -0.671875 C 13.082031 -1.503906 12.4375 -2.550781 12.03125 -3.8125 C 11.257812 -2.53125 10.347656 -1.507812 9.296875 -0.75 C 8.242188 0 7.1875 0.375 6.125 0.375 C 5.300781 0.375 4.550781 0.222656 3.875 -0.078125 C 3.195312 -0.390625 2.625 -0.816406 2.15625 -1.359375 C 1.6875 -1.910156 1.320312 -2.554688 1.0625 -3.296875 C 0.800781 -4.035156 0.671875 -4.847656 0.671875 -5.734375 C 0.671875 -7.484375 0.96875 -9.023438 1.5625 -10.359375 C 2.15625 -11.691406 2.910156 -12.804688 3.828125 -13.703125 C 4.753906 -14.609375 5.773438 -15.285156 6.890625 -15.734375 C 8.003906 -16.179688 9.078125 -16.40625 10.109375 -16.40625 C 10.804688 -16.40625 11.445312 -16.304688 12.03125 -16.109375 C 12.613281 -15.921875 13.113281 -15.710938 13.53125 -15.484375 C 13.945312 -15.265625 14.265625 -15.0625 14.484375 -14.875 C 14.710938 -14.6875 14.835938 -14.582031 14.859375 -14.5625 C 15.109375 -14.257812 15.234375 -13.953125 15.234375 -13.640625 C 15.234375 -13.304688 15.109375 -13.007812 14.859375 -12.75 C 14.609375 -12.488281 14.316406 -12.359375 13.984375 -12.359375 C 13.617188 -12.359375 13.316406 -12.484375 13.078125 -12.734375 C 13.023438 -12.773438 12.921875 -12.859375 12.765625 -12.984375 C 12.609375 -13.109375 12.394531 -13.238281 12.125 -13.375 C 11.851562 -13.507812 11.53125 -13.625 11.15625 -13.71875 C 10.789062 -13.820312 10.375 -13.875 9.90625 -13.875 C 9.207031 -13.875 8.460938 -13.71875 7.671875 -13.40625 C 6.890625 -13.09375 6.171875 -12.601562 5.515625 -11.9375 C 4.867188 -11.28125 4.328125 -10.453125 3.890625 -9.453125 C 3.453125 -8.453125 3.234375 -7.265625 3.234375 -5.890625 C 3.234375 -5.460938 3.273438 -5.03125 3.359375 -4.59375 C 3.453125 -4.15625 3.609375 -3.753906 3.828125 -3.390625 C 4.054688 -3.035156 4.363281 -2.742188 4.75 -2.515625 C 5.132812 -2.296875 5.609375 -2.1875 6.171875 -2.1875 C 6.566406 -2.1875 7.03125 -2.320312 7.5625 -2.59375 C 8.09375 -2.863281 8.597656 -3.28125 9.078125 -3.84375 C 9.554688 -4.40625 9.992188 -5.113281 10.390625 -5.96875 C 10.785156 -6.820312 11.0625 -7.832031 11.21875 -9 C 11.257812 -9.3125 11.40625 -9.570312 11.65625 -9.78125 C 11.90625 -10 12.195312 -10.109375 12.53125 -10.109375 C 12.84375 -10.109375 13.117188 -9.984375 13.359375 -9.734375 C 13.597656 -9.484375 13.726562 -9.203125 13.75 -8.890625 C 13.769531 -8.460938 13.8125 -7.863281 13.875 -7.09375 C 13.945312 -6.320312 14.097656 -5.550781 14.328125 -4.78125 C 14.566406 -4.019531 14.921875 -3.359375 15.390625 -2.796875 C 15.867188 -2.234375 16.519531 -1.953125 17.34375 -1.953125 C 17.882812 -1.953125 18.421875 -2.097656 18.953125 -2.390625 C 19.484375 -2.679688 20 -3.066406 20.5 -3.546875 C 21.007812 -4.035156 21.492188 -4.585938 21.953125 -5.203125 C 22.410156 -5.816406 22.828125 -6.4375 23.203125 -7.0625 C 23.585938 -7.695312 23.925781 -8.304688 24.21875 -8.890625 C 24.507812 -9.472656 24.757812 -9.976562 24.96875 -10.40625 C 25.082031 -10.65625 25.242188 -10.847656 25.453125 -10.984375 C 25.671875 -11.117188 25.898438 -11.1875 26.140625 -11.1875 C 26.523438 -11.1875 26.832031 -11.046875 27.0625 -10.765625 C 27.300781 -10.484375 27.421875 -10.1875 27.421875 -9.875 C 27.421875 -9.71875 27.390625 -9.5625 27.328125 -9.40625 Z M 27.328125 -9.40625 "/></g></g><g transform="translate(827.023235, 1161.037152)"><g><path d="M 14.921875 -10.609375 C 14.585938 -9.035156 14.101562 -7.566406 13.46875 -6.203125 C 12.84375 -4.847656 12.175781 -3.664062 11.46875 -2.65625 C 10.757812 -1.644531 10.046875 -0.847656 9.328125 -0.265625 C 8.609375 0.316406 7.992188 0.628906 7.484375 0.671875 C 6.898438 0.671875 6.253906 0.378906 5.546875 -0.203125 C 4.835938 -0.785156 4.160156 -1.597656 3.515625 -2.640625 C 2.878906 -3.691406 2.347656 -4.9375 1.921875 -6.375 C 1.492188 -7.8125 1.28125 -9.367188 1.28125 -11.046875 C 1.28125 -12.535156 1.410156 -13.660156 1.671875 -14.421875 C 1.929688 -15.179688 2.09375 -15.617188 2.15625 -15.734375 C 2.269531 -15.929688 2.421875 -16.085938 2.609375 -16.203125 C 2.796875 -16.316406 3.015625 -16.375 3.265625 -16.375 C 3.648438 -16.375 3.953125 -16.242188 4.171875 -15.984375 C 4.398438 -15.722656 4.515625 -15.4375 4.515625 -15.125 C 4.515625 -14.90625 4.46875 -14.71875 4.375 -14.5625 C 4.351562 -14.507812 4.253906 -14.203125 4.078125 -13.640625 C 3.898438 -13.078125 3.8125 -12.238281 3.8125 -11.125 C 3.8125 -9.789062 3.941406 -8.5625 4.203125 -7.4375 C 4.472656 -6.320312 4.800781 -5.359375 5.1875 -4.546875 C 5.570312 -3.734375 5.972656 -3.097656 6.390625 -2.640625 C 6.804688 -2.179688 7.144531 -1.953125 7.40625 -1.953125 C 7.59375 -1.953125 7.859375 -2.117188 8.203125 -2.453125 C 8.546875 -2.796875 8.914062 -3.257812 9.3125 -3.84375 C 9.707031 -4.425781 10.113281 -5.117188 10.53125 -5.921875 C 10.945312 -6.734375 11.328125 -7.613281 11.671875 -8.5625 C 12.023438 -9.519531 12.304688 -10.53125 12.515625 -11.59375 C 12.734375 -12.664062 12.84375 -13.753906 12.84375 -14.859375 C 12.84375 -15.078125 12.832031 -15.289062 12.8125 -15.5 C 12.800781 -15.71875 12.796875 -15.941406 12.796875 -16.171875 C 12.796875 -16.554688 12.914062 -16.875 13.15625 -17.125 C 13.394531 -17.382812 13.703125 -17.515625 14.078125 -17.515625 C 14.367188 -17.515625 14.632812 -17.425781 14.875 -17.25 C 15.113281 -17.070312 15.265625 -16.828125 15.328125 -16.515625 C 15.328125 -16.535156 15.367188 -16.351562 15.453125 -15.96875 C 15.546875 -15.582031 15.695312 -15.09375 15.90625 -14.5 C 16.125 -13.90625 16.394531 -13.257812 16.71875 -12.5625 C 17.050781 -11.863281 17.445312 -11.21875 17.90625 -10.625 C 18.363281 -10.03125 18.894531 -9.53125 19.5 -9.125 C 20.113281 -8.726562 20.8125 -8.53125 21.59375 -8.53125 C 22.019531 -8.53125 22.390625 -8.617188 22.703125 -8.796875 C 23.023438 -8.972656 23.285156 -9.171875 23.484375 -9.390625 C 23.679688 -9.617188 23.832031 -9.832031 23.9375 -10.03125 C 24.039062 -10.238281 24.09375 -10.351562 24.09375 -10.375 C 24.175781 -10.625 24.320312 -10.820312 24.53125 -10.96875 C 24.75 -11.113281 24.992188 -11.1875 25.265625 -11.1875 C 25.628906 -11.1875 25.929688 -11.054688 26.171875 -10.796875 C 26.421875 -10.535156 26.546875 -10.238281 26.546875 -9.90625 C 26.546875 -9.75 26.515625 -9.59375 26.453125 -9.4375 C 26.316406 -9.125 26.117188 -8.765625 25.859375 -8.359375 C 25.597656 -7.953125 25.265625 -7.566406 24.859375 -7.203125 C 24.460938 -6.847656 23.988281 -6.550781 23.4375 -6.3125 C 22.882812 -6.082031 22.269531 -5.96875 21.59375 -5.96875 C 20.8125 -5.96875 20.082031 -6.109375 19.40625 -6.390625 C 18.726562 -6.671875 18.113281 -7.03125 17.5625 -7.46875 C 17.019531 -7.90625 16.519531 -8.394531 16.0625 -8.9375 C 15.613281 -9.488281 15.234375 -10.046875 14.921875 -10.609375 Z M 14.921875 -10.609375 "/></g></g><g transform="translate(849.866007, 1161.037152)"><g><path d="M 5.328125 -3.703125 C 5.796875 -3.054688 6.398438 -2.535156 7.140625 -2.140625 C 7.878906 -1.742188 8.789062 -1.546875 9.875 -1.546875 C 10.96875 -1.546875 11.960938 -1.8125 12.859375 -2.34375 C 13.765625 -2.875 14.585938 -3.5625 15.328125 -4.40625 C 16.066406 -5.257812 16.726562 -6.210938 17.3125 -7.265625 C 17.894531 -8.328125 18.425781 -9.382812 18.90625 -10.4375 C 19.007812 -10.6875 19.160156 -10.875 19.359375 -11 C 19.566406 -11.125 19.796875 -11.1875 20.046875 -11.1875 C 20.429688 -11.1875 20.738281 -11.050781 20.96875 -10.78125 C 21.207031 -10.507812 21.328125 -10.21875 21.328125 -9.90625 C 21.328125 -9.789062 21.316406 -9.691406 21.296875 -9.609375 C 21.273438 -9.535156 21.238281 -9.453125 21.1875 -9.359375 C 19.644531 -5.953125 17.957031 -3.382812 16.125 -1.65625 C 14.289062 0.0703125 12.21875 0.960938 9.90625 1.015625 C 8.425781 1.015625 7.144531 0.726562 6.0625 0.15625 C 4.988281 -0.414062 4.101562 -1.15625 3.40625 -2.0625 C 2.707031 -2.976562 2.1875 -4.007812 1.84375 -5.15625 C 1.507812 -6.300781 1.34375 -7.445312 1.34375 -8.59375 C 1.34375 -9.738281 1.484375 -10.789062 1.765625 -11.75 C 2.046875 -12.71875 2.453125 -13.5625 2.984375 -14.28125 C 3.515625 -15 4.144531 -15.5625 4.875 -15.96875 C 5.601562 -16.375 6.40625 -16.578125 7.28125 -16.578125 C 7.789062 -16.578125 8.296875 -16.46875 8.796875 -16.25 C 9.304688 -16.039062 9.765625 -15.738281 10.171875 -15.34375 C 10.578125 -14.945312 10.898438 -14.46875 11.140625 -13.90625 C 11.390625 -13.351562 11.515625 -12.71875 11.515625 -12 C 11.515625 -11.070312 11.359375 -10.203125 11.046875 -9.390625 C 10.734375 -8.585938 10.300781 -7.835938 9.75 -7.140625 C 9.195312 -6.441406 8.539062 -5.800781 7.78125 -5.21875 C 7.019531 -4.632812 6.203125 -4.128906 5.328125 -3.703125 Z M 4.3125 -5.890625 C 5.007812 -6.179688 5.644531 -6.550781 6.21875 -7 C 6.789062 -7.457031 7.273438 -7.953125 7.671875 -8.484375 C 8.078125 -9.023438 8.394531 -9.59375 8.625 -10.1875 C 8.851562 -10.78125 8.96875 -11.382812 8.96875 -12 C 8.96875 -12.664062 8.796875 -13.171875 8.453125 -13.515625 C 8.117188 -13.867188 7.726562 -14.046875 7.28125 -14.046875 C 6.675781 -14.046875 6.160156 -13.875 5.734375 -13.53125 C 5.304688 -13.195312 4.957031 -12.757812 4.6875 -12.21875 C 4.414062 -11.6875 4.21875 -11.085938 4.09375 -10.421875 C 3.96875 -9.765625 3.90625 -9.109375 3.90625 -8.453125 C 3.90625 -8.046875 3.941406 -7.617188 4.015625 -7.171875 C 4.097656 -6.722656 4.195312 -6.296875 4.3125 -5.890625 Z M 4.3125 -5.890625 "/></g></g><g transform="translate(867.48661, 1161.037152)"><g><path d="M 23.3125 -9.328125 C 23.175781 -9.085938 22.945312 -8.640625 22.625 -7.984375 C 22.300781 -7.335938 21.863281 -6.601562 21.3125 -5.78125 C 20.757812 -4.957031 20.097656 -4.109375 19.328125 -3.234375 C 18.566406 -2.359375 17.691406 -1.554688 16.703125 -0.828125 C 15.722656 -0.0976562 14.617188 0.5 13.390625 0.96875 C 12.171875 1.445312 10.84375 1.6875 9.40625 1.6875 C 8.125 1.6875 6.988281 1.453125 6 0.984375 C 5.007812 0.523438 4.164062 -0.117188 3.46875 -0.953125 C 2.769531 -1.796875 2.238281 -2.789062 1.875 -3.9375 C 1.519531 -5.082031 1.34375 -6.351562 1.34375 -7.75 C 1.34375 -9.09375 1.535156 -10.351562 1.921875 -11.53125 C 2.304688 -12.71875 2.828125 -13.75 3.484375 -14.625 C 4.148438 -15.5 4.921875 -16.1875 5.796875 -16.6875 C 6.671875 -17.195312 7.601562 -17.453125 8.59375 -17.453125 C 9.332031 -17.453125 10.003906 -17.320312 10.609375 -17.0625 C 11.210938 -16.800781 11.722656 -16.457031 12.140625 -16.03125 C 12.554688 -15.601562 12.882812 -15.128906 13.125 -14.609375 C 13.363281 -14.097656 13.484375 -13.585938 13.484375 -13.078125 C 13.484375 -12.578125 13.421875 -12.113281 13.296875 -11.6875 C 13.171875 -11.257812 13.007812 -10.882812 12.8125 -10.5625 C 12.625 -10.238281 12.40625 -9.976562 12.15625 -9.78125 C 11.914062 -9.59375 11.671875 -9.5 11.421875 -9.5 C 11.035156 -9.5 10.722656 -9.625 10.484375 -9.875 C 10.253906 -10.125 10.140625 -10.425781 10.140625 -10.78125 C 10.140625 -10.957031 10.175781 -11.113281 10.25 -11.25 C 10.332031 -11.382812 10.425781 -11.523438 10.53125 -11.671875 C 10.632812 -11.816406 10.722656 -11.992188 10.796875 -12.203125 C 10.878906 -12.421875 10.921875 -12.695312 10.921875 -13.03125 C 10.921875 -13.507812 10.703125 -13.9375 10.265625 -14.3125 C 9.828125 -14.695312 9.269531 -14.890625 8.59375 -14.890625 C 7.957031 -14.890625 7.351562 -14.695312 6.78125 -14.3125 C 6.21875 -13.9375 5.722656 -13.425781 5.296875 -12.78125 C 4.867188 -12.144531 4.523438 -11.394531 4.265625 -10.53125 C 4.003906 -9.664062 3.875 -8.75 3.875 -7.78125 C 3.875 -6.863281 3.984375 -5.988281 4.203125 -5.15625 C 4.429688 -4.320312 4.769531 -3.582031 5.21875 -2.9375 C 5.664062 -2.300781 6.234375 -1.789062 6.921875 -1.40625 C 7.609375 -1.03125 8.421875 -0.84375 9.359375 -0.84375 C 10.578125 -0.84375 11.703125 -1.0625 12.734375 -1.5 C 13.765625 -1.9375 14.707031 -2.488281 15.5625 -3.15625 C 16.414062 -3.832031 17.164062 -4.566406 17.8125 -5.359375 C 18.46875 -6.160156 19.023438 -6.914062 19.484375 -7.625 C 19.953125 -8.332031 20.3125 -8.953125 20.5625 -9.484375 C 20.820312 -10.015625 20.976562 -10.347656 21.03125 -10.484375 C 21.113281 -10.703125 21.257812 -10.875 21.46875 -11 C 21.6875 -11.125 21.921875 -11.1875 22.171875 -11.1875 C 22.546875 -11.1875 22.851562 -11.050781 23.09375 -10.78125 C 23.332031 -10.507812 23.453125 -10.207031 23.453125 -9.875 C 23.453125 -9.738281 23.40625 -9.554688 23.3125 -9.328125 Z M 23.3125 -9.328125 "/></g></g><g transform="translate(887.229773, 1161.037152)"><g/></g><g transform="translate(902.390904, 1161.037152)"><g><path d="M 29.6875 -9.328125 C 29.613281 -9.191406 29.460938 -8.914062 29.234375 -8.5 C 29.015625 -8.09375 28.722656 -7.613281 28.359375 -7.0625 C 28.003906 -6.507812 27.578125 -5.921875 27.078125 -5.296875 C 26.585938 -4.679688 26.050781 -4.113281 25.46875 -3.59375 C 24.882812 -3.082031 24.253906 -2.65625 23.578125 -2.3125 C 22.910156 -1.976562 22.21875 -1.8125 21.5 -1.8125 C 20.332031 -1.8125 19.34375 -2.019531 18.53125 -2.4375 C 17.71875 -2.851562 17.054688 -3.320312 16.546875 -3.84375 C 16.179688 -3.050781 15.738281 -2.328125 15.21875 -1.671875 C 14.707031 -1.023438 14.132812 -0.460938 13.5 0.015625 C 12.875 0.492188 12.207031 0.867188 11.5 1.140625 C 10.789062 1.410156 10.066406 1.546875 9.328125 1.546875 C 7.960938 1.546875 6.796875 1.140625 5.828125 0.328125 C 4.859375 -0.472656 4.050781 -1.550781 3.40625 -2.90625 C 2.769531 -4.269531 2.269531 -5.847656 1.90625 -7.640625 C 1.550781 -9.441406 1.28125 -11.328125 1.09375 -13.296875 C 0.90625 -15.273438 0.785156 -17.273438 0.734375 -19.296875 C 0.691406 -21.328125 0.671875 -23.25 0.671875 -25.0625 C 0.671875 -28.539062 0.769531 -31.554688 0.96875 -34.109375 C 1.175781 -36.660156 1.453125 -38.828125 1.796875 -40.609375 C 2.148438 -42.398438 2.554688 -43.847656 3.015625 -44.953125 C 3.472656 -46.066406 3.957031 -46.929688 4.46875 -47.546875 C 4.988281 -48.171875 5.519531 -48.59375 6.0625 -48.8125 C 6.601562 -49.039062 7.128906 -49.15625 7.640625 -49.15625 C 8.472656 -49.15625 9.207031 -48.90625 9.84375 -48.40625 C 10.488281 -47.914062 11.03125 -47.226562 11.46875 -46.34375 C 11.90625 -45.457031 12.234375 -44.382812 12.453125 -43.125 C 12.679688 -41.863281 12.796875 -40.484375 12.796875 -38.984375 C 12.796875 -36.578125 12.535156 -34.09375 12.015625 -31.53125 C 11.503906 -28.96875 10.835938 -26.410156 10.015625 -23.859375 C 9.203125 -21.316406 8.289062 -18.816406 7.28125 -16.359375 C 6.269531 -13.898438 5.269531 -11.566406 4.28125 -9.359375 C 4.414062 -8.265625 4.617188 -7.21875 4.890625 -6.21875 C 5.160156 -5.21875 5.503906 -4.328125 5.921875 -3.546875 C 6.347656 -2.773438 6.851562 -2.160156 7.4375 -1.703125 C 8.03125 -1.242188 8.707031 -1.015625 9.46875 -1.015625 C 10.226562 -1.015625 10.945312 -1.234375 11.625 -1.671875 C 12.300781 -2.109375 12.882812 -2.679688 13.375 -3.390625 C 13.863281 -4.097656 14.25 -4.898438 14.53125 -5.796875 C 14.8125 -6.691406 14.953125 -7.613281 14.953125 -8.5625 C 14.953125 -9.1875 14.890625 -9.816406 14.765625 -10.453125 C 14.648438 -11.097656 14.460938 -11.671875 14.203125 -12.171875 C 13.941406 -12.679688 13.617188 -13.09375 13.234375 -13.40625 C 12.859375 -13.71875 12.398438 -13.875 11.859375 -13.875 C 11.453125 -13.875 11.132812 -13.789062 10.90625 -13.625 C 10.6875 -13.457031 10.519531 -13.265625 10.40625 -13.046875 C 10.300781 -12.835938 10.234375 -12.628906 10.203125 -12.421875 C 10.179688 -12.222656 10.171875 -12.09375 10.171875 -12.03125 C 10.171875 -11.71875 10.238281 -11.398438 10.375 -11.078125 C 10.507812 -10.765625 10.769531 -10.488281 11.15625 -10.25 C 11.53125 -9.976562 11.71875 -9.601562 11.71875 -9.125 C 11.71875 -8.75 11.585938 -8.445312 11.328125 -8.21875 C 11.078125 -8 10.796875 -7.890625 10.484375 -7.890625 C 10.023438 -7.890625 9.625 -8.019531 9.28125 -8.28125 C 8.9375 -8.550781 8.640625 -8.894531 8.390625 -9.3125 C 8.140625 -9.726562 7.945312 -10.171875 7.8125 -10.640625 C 7.675781 -11.117188 7.609375 -11.554688 7.609375 -11.953125 C 7.609375 -12.609375 7.71875 -13.210938 7.9375 -13.765625 C 8.164062 -14.316406 8.476562 -14.785156 8.875 -15.171875 C 9.269531 -15.566406 9.71875 -15.867188 10.21875 -16.078125 C 10.726562 -16.296875 11.265625 -16.40625 11.828125 -16.40625 C 12.796875 -16.40625 13.628906 -16.179688 14.328125 -15.734375 C 15.035156 -15.285156 15.625 -14.691406 16.09375 -13.953125 C 16.570312 -13.210938 16.921875 -12.367188 17.140625 -11.421875 C 17.367188 -10.472656 17.484375 -9.519531 17.484375 -8.5625 C 17.484375 -8 17.453125 -7.445312 17.390625 -6.90625 C 17.472656 -6.726562 17.613281 -6.492188 17.8125 -6.203125 C 18.019531 -5.910156 18.289062 -5.628906 18.625 -5.359375 C 18.96875 -5.085938 19.375 -4.847656 19.84375 -4.640625 C 20.3125 -4.441406 20.863281 -4.34375 21.5 -4.34375 C 22.03125 -4.34375 22.582031 -4.550781 23.15625 -4.96875 C 23.726562 -5.382812 24.28125 -5.898438 24.8125 -6.515625 C 25.34375 -7.140625 25.832031 -7.800781 26.28125 -8.5 C 26.726562 -9.207031 27.097656 -9.867188 27.390625 -10.484375 C 27.503906 -10.703125 27.660156 -10.875 27.859375 -11 C 28.066406 -11.125 28.289062 -11.1875 28.53125 -11.1875 C 28.914062 -11.1875 29.222656 -11.050781 29.453125 -10.78125 C 29.691406 -10.507812 29.8125 -10.207031 29.8125 -9.875 C 29.8125 -9.738281 29.769531 -9.554688 29.6875 -9.328125 Z M 3.640625 -13.671875 C 4.398438 -15.566406 5.171875 -17.550781 5.953125 -19.625 C 6.742188 -21.695312 7.453125 -23.8125 8.078125 -25.96875 C 8.710938 -28.125 9.234375 -30.300781 9.640625 -32.5 C 10.046875 -34.707031 10.25 -36.878906 10.25 -39.015625 C 10.25 -39.828125 10.207031 -40.675781 10.125 -41.5625 C 10.039062 -42.445312 9.898438 -43.257812 9.703125 -44 C 9.503906 -44.738281 9.226562 -45.351562 8.875 -45.84375 C 8.53125 -46.34375 8.085938 -46.59375 7.546875 -46.59375 C 7.367188 -46.59375 7.140625 -46.472656 6.859375 -46.234375 C 6.578125 -46.003906 6.273438 -45.59375 5.953125 -45 C 5.640625 -44.40625 5.328125 -43.578125 5.015625 -42.515625 C 4.703125 -41.460938 4.414062 -40.117188 4.15625 -38.484375 C 3.90625 -36.859375 3.691406 -34.898438 3.515625 -32.609375 C 3.347656 -30.316406 3.265625 -27.625 3.265625 -24.53125 C 3.265625 -23.5 3.273438 -22.445312 3.296875 -21.375 C 3.316406 -20.3125 3.34375 -19.296875 3.375 -18.328125 C 3.414062 -17.359375 3.457031 -16.46875 3.5 -15.65625 C 3.550781 -14.851562 3.597656 -14.191406 3.640625 -13.671875 Z M 3.640625 -13.671875 "/></g></g><g transform="translate(928.501742, 1161.037152)"><g><path d="M 5.328125 -3.703125 C 5.796875 -3.054688 6.398438 -2.535156 7.140625 -2.140625 C 7.878906 -1.742188 8.789062 -1.546875 9.875 -1.546875 C 10.96875 -1.546875 11.960938 -1.8125 12.859375 -2.34375 C 13.765625 -2.875 14.585938 -3.5625 15.328125 -4.40625 C 16.066406 -5.257812 16.726562 -6.210938 17.3125 -7.265625 C 17.894531 -8.328125 18.425781 -9.382812 18.90625 -10.4375 C 19.007812 -10.6875 19.160156 -10.875 19.359375 -11 C 19.566406 -11.125 19.796875 -11.1875 20.046875 -11.1875 C 20.429688 -11.1875 20.738281 -11.050781 20.96875 -10.78125 C 21.207031 -10.507812 21.328125 -10.21875 21.328125 -9.90625 C 21.328125 -9.789062 21.316406 -9.691406 21.296875 -9.609375 C 21.273438 -9.535156 21.238281 -9.453125 21.1875 -9.359375 C 19.644531 -5.953125 17.957031 -3.382812 16.125 -1.65625 C 14.289062 0.0703125 12.21875 0.960938 9.90625 1.015625 C 8.425781 1.015625 7.144531 0.726562 6.0625 0.15625 C 4.988281 -0.414062 4.101562 -1.15625 3.40625 -2.0625 C 2.707031 -2.976562 2.1875 -4.007812 1.84375 -5.15625 C 1.507812 -6.300781 1.34375 -7.445312 1.34375 -8.59375 C 1.34375 -9.738281 1.484375 -10.789062 1.765625 -11.75 C 2.046875 -12.71875 2.453125 -13.5625 2.984375 -14.28125 C 3.515625 -15 4.144531 -15.5625 4.875 -15.96875 C 5.601562 -16.375 6.40625 -16.578125 7.28125 -16.578125 C 7.789062 -16.578125 8.296875 -16.46875 8.796875 -16.25 C 9.304688 -16.039062 9.765625 -15.738281 10.171875 -15.34375 C 10.578125 -14.945312 10.898438 -14.46875 11.140625 -13.90625 C 11.390625 -13.351562 11.515625 -12.71875 11.515625 -12 C 11.515625 -11.070312 11.359375 -10.203125 11.046875 -9.390625 C 10.734375 -8.585938 10.300781 -7.835938 9.75 -7.140625 C 9.195312 -6.441406 8.539062 -5.800781 7.78125 -5.21875 C 7.019531 -4.632812 6.203125 -4.128906 5.328125 -3.703125 Z M 4.3125 -5.890625 C 5.007812 -6.179688 5.644531 -6.550781 6.21875 -7 C 6.789062 -7.457031 7.273438 -7.953125 7.671875 -8.484375 C 8.078125 -9.023438 8.394531 -9.59375 8.625 -10.1875 C 8.851562 -10.78125 8.96875 -11.382812 8.96875 -12 C 8.96875 -12.664062 8.796875 -13.171875 8.453125 -13.515625 C 8.117188 -13.867188 7.726562 -14.046875 7.28125 -14.046875 C 6.675781 -14.046875 6.160156 -13.875 5.734375 -13.53125 C 5.304688 -13.195312 4.957031 -12.757812 4.6875 -12.21875 C 4.414062 -11.6875 4.21875 -11.085938 4.09375 -10.421875 C 3.96875 -9.765625 3.90625 -9.109375 3.90625 -8.453125 C 3.90625 -8.046875 3.941406 -7.617188 4.015625 -7.171875 C 4.097656 -6.722656 4.195312 -6.296875 4.3125 -5.890625 Z M 5.59375 -21.796875 L 10.984375 -26.921875 C 11.210938 -27.117188 11.472656 -27.21875 11.765625 -27.21875 C 12.054688 -27.21875 12.3125 -27.101562 12.53125 -26.875 C 12.757812 -26.65625 12.875 -26.390625 12.875 -26.078125 C 12.875 -25.765625 12.757812 -25.503906 12.53125 -25.296875 L 7.140625 -20.1875 C 6.890625 -19.976562 6.632812 -19.875 6.375 -19.875 C 6.050781 -19.875 5.78125 -19.984375 5.5625 -20.203125 C 5.351562 -20.429688 5.25 -20.691406 5.25 -20.984375 C 5.25 -21.304688 5.363281 -21.578125 5.59375 -21.796875 Z M 5.59375 -21.796875 "/></g></g><g transform="translate(946.122345, 1161.037152)"><g><path d="M 29.6875 -9.328125 C 29.613281 -9.191406 29.460938 -8.914062 29.234375 -8.5 C 29.015625 -8.09375 28.722656 -7.613281 28.359375 -7.0625 C 28.003906 -6.507812 27.578125 -5.921875 27.078125 -5.296875 C 26.585938 -4.679688 26.050781 -4.113281 25.46875 -3.59375 C 24.882812 -3.082031 24.253906 -2.65625 23.578125 -2.3125 C 22.910156 -1.976562 22.21875 -1.8125 21.5 -1.8125 C 20.332031 -1.8125 19.34375 -2.019531 18.53125 -2.4375 C 17.71875 -2.851562 17.054688 -3.320312 16.546875 -3.84375 C 16.179688 -3.050781 15.738281 -2.328125 15.21875 -1.671875 C 14.707031 -1.023438 14.132812 -0.460938 13.5 0.015625 C 12.875 0.492188 12.207031 0.867188 11.5 1.140625 C 10.789062 1.410156 10.066406 1.546875 9.328125 1.546875 C 7.960938 1.546875 6.796875 1.140625 5.828125 0.328125 C 4.859375 -0.472656 4.050781 -1.550781 3.40625 -2.90625 C 2.769531 -4.269531 2.269531 -5.847656 1.90625 -7.640625 C 1.550781 -9.441406 1.28125 -11.328125 1.09375 -13.296875 C 0.90625 -15.273438 0.785156 -17.273438 0.734375 -19.296875 C 0.691406 -21.328125 0.671875 -23.25 0.671875 -25.0625 C 0.671875 -28.539062 0.769531 -31.554688 0.96875 -34.109375 C 1.175781 -36.660156 1.453125 -38.828125 1.796875 -40.609375 C 2.148438 -42.398438 2.554688 -43.847656 3.015625 -44.953125 C 3.472656 -46.066406 3.957031 -46.929688 4.46875 -47.546875 C 4.988281 -48.171875 5.519531 -48.59375 6.0625 -48.8125 C 6.601562 -49.039062 7.128906 -49.15625 7.640625 -49.15625 C 8.472656 -49.15625 9.207031 -48.90625 9.84375 -48.40625 C 10.488281 -47.914062 11.03125 -47.226562 11.46875 -46.34375 C 11.90625 -45.457031 12.234375 -44.382812 12.453125 -43.125 C 12.679688 -41.863281 12.796875 -40.484375 12.796875 -38.984375 C 12.796875 -36.578125 12.535156 -34.09375 12.015625 -31.53125 C 11.503906 -28.96875 10.835938 -26.410156 10.015625 -23.859375 C 9.203125 -21.316406 8.289062 -18.816406 7.28125 -16.359375 C 6.269531 -13.898438 5.269531 -11.566406 4.28125 -9.359375 C 4.414062 -8.265625 4.617188 -7.21875 4.890625 -6.21875 C 5.160156 -5.21875 5.503906 -4.328125 5.921875 -3.546875 C 6.347656 -2.773438 6.851562 -2.160156 7.4375 -1.703125 C 8.03125 -1.242188 8.707031 -1.015625 9.46875 -1.015625 C 10.226562 -1.015625 10.945312 -1.234375 11.625 -1.671875 C 12.300781 -2.109375 12.882812 -2.679688 13.375 -3.390625 C 13.863281 -4.097656 14.25 -4.898438 14.53125 -5.796875 C 14.8125 -6.691406 14.953125 -7.613281 14.953125 -8.5625 C 14.953125 -9.1875 14.890625 -9.816406 14.765625 -10.453125 C 14.648438 -11.097656 14.460938 -11.671875 14.203125 -12.171875 C 13.941406 -12.679688 13.617188 -13.09375 13.234375 -13.40625 C 12.859375 -13.71875 12.398438 -13.875 11.859375 -13.875 C 11.453125 -13.875 11.132812 -13.789062 10.90625 -13.625 C 10.6875 -13.457031 10.519531 -13.265625 10.40625 -13.046875 C 10.300781 -12.835938 10.234375 -12.628906 10.203125 -12.421875 C 10.179688 -12.222656 10.171875 -12.09375 10.171875 -12.03125 C 10.171875 -11.71875 10.238281 -11.398438 10.375 -11.078125 C 10.507812 -10.765625 10.769531 -10.488281 11.15625 -10.25 C 11.53125 -9.976562 11.71875 -9.601562 11.71875 -9.125 C 11.71875 -8.75 11.585938 -8.445312 11.328125 -8.21875 C 11.078125 -8 10.796875 -7.890625 10.484375 -7.890625 C 10.023438 -7.890625 9.625 -8.019531 9.28125 -8.28125 C 8.9375 -8.550781 8.640625 -8.894531 8.390625 -9.3125 C 8.140625 -9.726562 7.945312 -10.171875 7.8125 -10.640625 C 7.675781 -11.117188 7.609375 -11.554688 7.609375 -11.953125 C 7.609375 -12.609375 7.71875 -13.210938 7.9375 -13.765625 C 8.164062 -14.316406 8.476562 -14.785156 8.875 -15.171875 C 9.269531 -15.566406 9.71875 -15.867188 10.21875 -16.078125 C 10.726562 -16.296875 11.265625 -16.40625 11.828125 -16.40625 C 12.796875 -16.40625 13.628906 -16.179688 14.328125 -15.734375 C 15.035156 -15.285156 15.625 -14.691406 16.09375 -13.953125 C 16.570312 -13.210938 16.921875 -12.367188 17.140625 -11.421875 C 17.367188 -10.472656 17.484375 -9.519531 17.484375 -8.5625 C 17.484375 -8 17.453125 -7.445312 17.390625 -6.90625 C 17.472656 -6.726562 17.613281 -6.492188 17.8125 -6.203125 C 18.019531 -5.910156 18.289062 -5.628906 18.625 -5.359375 C 18.96875 -5.085938 19.375 -4.847656 19.84375 -4.640625 C 20.3125 -4.441406 20.863281 -4.34375 21.5 -4.34375 C 22.03125 -4.34375 22.582031 -4.550781 23.15625 -4.96875 C 23.726562 -5.382812 24.28125 -5.898438 24.8125 -6.515625 C 25.34375 -7.140625 25.832031 -7.800781 26.28125 -8.5 C 26.726562 -9.207031 27.097656 -9.867188 27.390625 -10.484375 C 27.503906 -10.703125 27.660156 -10.875 27.859375 -11 C 28.066406 -11.125 28.289062 -11.1875 28.53125 -11.1875 C 28.914062 -11.1875 29.222656 -11.050781 29.453125 -10.78125 C 29.691406 -10.507812 29.8125 -10.207031 29.8125 -9.875 C 29.8125 -9.738281 29.769531 -9.554688 29.6875 -9.328125 Z M 3.640625 -13.671875 C 4.398438 -15.566406 5.171875 -17.550781 5.953125 -19.625 C 6.742188 -21.695312 7.453125 -23.8125 8.078125 -25.96875 C 8.710938 -28.125 9.234375 -30.300781 9.640625 -32.5 C 10.046875 -34.707031 10.25 -36.878906 10.25 -39.015625 C 10.25 -39.828125 10.207031 -40.675781 10.125 -41.5625 C 10.039062 -42.445312 9.898438 -43.257812 9.703125 -44 C 9.503906 -44.738281 9.226562 -45.351562 8.875 -45.84375 C 8.53125 -46.34375 8.085938 -46.59375 7.546875 -46.59375 C 7.367188 -46.59375 7.140625 -46.472656 6.859375 -46.234375 C 6.578125 -46.003906 6.273438 -45.59375 5.953125 -45 C 5.640625 -44.40625 5.328125 -43.578125 5.015625 -42.515625 C 4.703125 -41.460938 4.414062 -40.117188 4.15625 -38.484375 C 3.90625 -36.859375 3.691406 -34.898438 3.515625 -32.609375 C 3.347656 -30.316406 3.265625 -27.625 3.265625 -24.53125 C 3.265625 -23.5 3.273438 -22.445312 3.296875 -21.375 C 3.316406 -20.3125 3.34375 -19.296875 3.375 -18.328125 C 3.414062 -17.359375 3.457031 -16.46875 3.5 -15.65625 C 3.550781 -14.851562 3.597656 -14.191406 3.640625 -13.671875 Z M 3.640625 -13.671875 "/></g></g><g transform="translate(972.233183, 1161.037152)"><g><path d="M 5.328125 -3.703125 C 5.796875 -3.054688 6.398438 -2.535156 7.140625 -2.140625 C 7.878906 -1.742188 8.789062 -1.546875 9.875 -1.546875 C 10.96875 -1.546875 11.960938 -1.8125 12.859375 -2.34375 C 13.765625 -2.875 14.585938 -3.5625 15.328125 -4.40625 C 16.066406 -5.257812 16.726562 -6.210938 17.3125 -7.265625 C 17.894531 -8.328125 18.425781 -9.382812 18.90625 -10.4375 C 19.007812 -10.6875 19.160156 -10.875 19.359375 -11 C 19.566406 -11.125 19.796875 -11.1875 20.046875 -11.1875 C 20.429688 -11.1875 20.738281 -11.050781 20.96875 -10.78125 C 21.207031 -10.507812 21.328125 -10.21875 21.328125 -9.90625 C 21.328125 -9.789062 21.316406 -9.691406 21.296875 -9.609375 C 21.273438 -9.535156 21.238281 -9.453125 21.1875 -9.359375 C 19.644531 -5.953125 17.957031 -3.382812 16.125 -1.65625 C 14.289062 0.0703125 12.21875 0.960938 9.90625 1.015625 C 8.425781 1.015625 7.144531 0.726562 6.0625 0.15625 C 4.988281 -0.414062 4.101562 -1.15625 3.40625 -2.0625 C 2.707031 -2.976562 2.1875 -4.007812 1.84375 -5.15625 C 1.507812 -6.300781 1.34375 -7.445312 1.34375 -8.59375 C 1.34375 -9.738281 1.484375 -10.789062 1.765625 -11.75 C 2.046875 -12.71875 2.453125 -13.5625 2.984375 -14.28125 C 3.515625 -15 4.144531 -15.5625 4.875 -15.96875 C 5.601562 -16.375 6.40625 -16.578125 7.28125 -16.578125 C 7.789062 -16.578125 8.296875 -16.46875 8.796875 -16.25 C 9.304688 -16.039062 9.765625 -15.738281 10.171875 -15.34375 C 10.578125 -14.945312 10.898438 -14.46875 11.140625 -13.90625 C 11.390625 -13.351562 11.515625 -12.71875 11.515625 -12 C 11.515625 -11.070312 11.359375 -10.203125 11.046875 -9.390625 C 10.734375 -8.585938 10.300781 -7.835938 9.75 -7.140625 C 9.195312 -6.441406 8.539062 -5.800781 7.78125 -5.21875 C 7.019531 -4.632812 6.203125 -4.128906 5.328125 -3.703125 Z M 4.3125 -5.890625 C 5.007812 -6.179688 5.644531 -6.550781 6.21875 -7 C 6.789062 -7.457031 7.273438 -7.953125 7.671875 -8.484375 C 8.078125 -9.023438 8.394531 -9.59375 8.625 -10.1875 C 8.851562 -10.78125 8.96875 -11.382812 8.96875 -12 C 8.96875 -12.664062 8.796875 -13.171875 8.453125 -13.515625 C 8.117188 -13.867188 7.726562 -14.046875 7.28125 -14.046875 C 6.675781 -14.046875 6.160156 -13.875 5.734375 -13.53125 C 5.304688 -13.195312 4.957031 -12.757812 4.6875 -12.21875 C 4.414062 -11.6875 4.21875 -11.085938 4.09375 -10.421875 C 3.96875 -9.765625 3.90625 -9.109375 3.90625 -8.453125 C 3.90625 -8.046875 3.941406 -7.617188 4.015625 -7.171875 C 4.097656 -6.722656 4.195312 -6.296875 4.3125 -5.890625 Z M 5.59375 -21.796875 L 10.984375 -26.921875 C 11.210938 -27.117188 11.472656 -27.21875 11.765625 -27.21875 C 12.054688 -27.21875 12.3125 -27.101562 12.53125 -26.875 C 12.757812 -26.65625 12.875 -26.390625 12.875 -26.078125 C 12.875 -25.765625 12.757812 -25.503906 12.53125 -25.296875 L 7.140625 -20.1875 C 6.890625 -19.976562 6.632812 -19.875 6.375 -19.875 C 6.050781 -19.875 5.78125 -19.984375 5.5625 -20.203125 C 5.351562 -20.429688 5.25 -20.691406 5.25 -20.984375 C 5.25 -21.304688 5.363281 -21.578125 5.59375 -21.796875 Z M 5.59375 -21.796875 "/></g></g><g transform="translate(989.853787, 1161.037152)"><g/></g><g transform="translate(1005.014918, 1161.037152)"><g><path d="M 10.140625 -8.921875 C 10.117188 -8.585938 9.988281 -8.300781 9.75 -8.0625 C 9.519531 -7.832031 9.222656 -7.71875 8.859375 -7.71875 L 8.828125 -7.71875 C 8.460938 -7.71875 8.160156 -7.84375 7.921875 -8.09375 C 7.691406 -8.351562 7.585938 -8.664062 7.609375 -9.03125 L 8.71875 -47.171875 C 8.75 -47.523438 8.882812 -47.828125 9.125 -48.078125 C 9.375 -48.328125 9.679688 -48.441406 10.046875 -48.421875 C 10.398438 -48.390625 10.691406 -48.25 10.921875 -48 C 11.160156 -47.757812 11.28125 -47.457031 11.28125 -47.09375 Z M 10.375 -0.734375 C 10.375 -0.222656 10.195312 0.203125 9.84375 0.546875 C 9.5 0.898438 9.070312 1.078125 8.5625 1.078125 C 8.039062 1.078125 7.601562 0.898438 7.25 0.546875 C 6.90625 0.203125 6.734375 -0.222656 6.734375 -0.734375 C 6.734375 -1.253906 6.90625 -1.6875 7.25 -2.03125 C 7.601562 -2.382812 8.039062 -2.5625 8.5625 -2.5625 C 9.070312 -2.5625 9.5 -2.382812 9.84375 -2.03125 C 10.195312 -1.6875 10.375 -1.253906 10.375 -0.734375 Z M 10.375 -0.734375 "/></g></g></g></svg>